<svg fill="none" style="width:100%;height:100%" viewBox="0 0 293 164">
<g clip-path="url(#a)">
<path d="M158.484 142.082c-1.194-13.657 2.23-100.931-.106-141.264-6.354.524-30.823-.155-37.225.866.992 46.443.512 92.476-.552 140.273 13.641.399 27.298.255 37.883.125Z" fill="#fff" stroke="#010101" stroke-width="1.5" stroke-linecap="round" stroke-linejoin="round"/>
<path d="M134.305 106.077c0-21.999.523-56.371.523-77.344 4.545.066 9.492-.6 10.725.032.496 18.012 0 77.452 0 77.452s-7.498.058-11.248-.14Z" fill="#a084e8" stroke="#010101" stroke-width="1.5" stroke-linecap="round" stroke-linejoin="round"/>
<path d="M120.672 138.757c-2.042 2.594-5.671 3.141-9.132 3.461-3.46.319-7.493-.32-9.963-2.764 0-46.518.259-80.905.259-119.803.264-3.606 11.811-7.456 16.701-3.49 1.027.833 1.81 1.926 2.762 2.844.952.918-.627 93.749-.627 119.752Z" fill="#8be8e5" stroke="#010101" stroke-width="1.5" stroke-linecap="round" stroke-linejoin="round"/>
<path d="M102.441 29.571a216.406 216.406 0 0 1 18.478-1.031M112.809 49.99a1157.955 1157.955 0 0 0-.026 65.041M102.625 127.288l17.368-.492" stroke="#010101" stroke-width="1.5" stroke-linecap="round" stroke-linejoin="round"/>
<path d="M101.577 142.294c-6.626.218-10.362 0-16.436 0 0-23.784-.513-60.66-.513-94.922 5.753-.247 11.962-.367 16.949-.172v95.094Z" fill="#fff" stroke="#010101" stroke-width="1.5" stroke-linecap="round" stroke-linejoin="round"/>
<path d="M214.289 137.281c-4.65-12.896-23.68-98.139-36.263-136.531-6.009 2.133-13.104 3.17-19.031 5.795 12.847 44.642 24.166 89.264 35.374 135.741 13.288-3.106 9.721-2.17 19.92-5.005Z" fill="#E3E3FF" stroke="#010101" stroke-width="1.5" stroke-linecap="round" stroke-linejoin="round"/>
<path d="M165.717 28.69c6.525-2.055 12.395-3.464 18.92-5.519M168.271 36.268l18.071-5.645M189.121 117.071c6.407-1.641 12.066-2.842 18.473-4.483M190.348 125.296c6.605-.929 13.15-2.29 19.578-4.071" stroke="#010101" stroke-width="1.5" stroke-linecap="round" stroke-linejoin="round"/>
<path d="M214.289 137.281c-4.65-12.896-23.68-98.139-36.263-136.531-6.009 2.133-13.104 3.17-19.031 5.795 12.847 44.642 24.166 89.264 35.374 135.741 13.288-3.106 9.721-2.17 19.92-5.005Z" fill="#E3E3FF" stroke="#010101" stroke-width="1.5" stroke-linecap="round" stroke-linejoin="round"/>
<path d="M165.717 28.69c6.525-2.055 12.395-3.464 18.92-5.519M168.271 36.268l18.071-5.645M189.121 117.071c6.407-1.641 12.066-2.842 18.473-4.483M190.348 125.296c6.605-.929 13.15-2.29 19.578-4.071" stroke="#010101" stroke-width="1.5" stroke-linecap="round" stroke-linejoin="round"/>
<path d="M12.872 103.475c-.064 15.851-.443 23.547.517 39.538 25.917-.061 55.111-.394 78.546-.394.518-14.538.629-21.85.629-38.559 0-.584-71.384-1.322-79.692-.585Z" fill="#a084e8" stroke="#010101" stroke-width="1.5" stroke-linecap="round" stroke-linejoin="round"/>
<path d="M55.463 120.957.75 102.904l54.352-26.111 50.405 24.613-50.044 19.551Z" fill="#a084e8" stroke="#010101" stroke-width="1.5" stroke-linecap="round" stroke-linejoin="round"/>
<path d="M27.348 111.793c-.381 17.276-.622 23.846-.622 38.622l.622-38.622Z" fill="#a084e8"/>
<path d="M27.348 111.793c-.381 17.276-.622 23.846-.622 38.622" stroke="#010101" stroke-width="1.5" stroke-linecap="round" stroke-linejoin="round"/>
<path d="M30.213 154.458c-1.093-1.147-2.414-2.978-3.507-4.124-1.255 1.232-2.439 2.536-3.867 4.123a91.15 91.15 0 0 1 .077 7.842c1.369.091 5.619-.107 7.049-.012 0-2.26.005-3.806.248-7.829Z" fill="#a084e8" stroke="#010101" stroke-width="1.5" stroke-linecap="round" stroke-linejoin="round"/>
<path d="M229.784 20.209c-5.997 1.136-12.401 3.293-19.215 6.696-9.375 4.682-16.33 13.345-21.21 22.618-8.477 16.108-9.892 36.358-1.442 52.479 3.684 7.028 9.075 13.089 15.304 18.006 14.715 11.616 34.362 16.753 52.882 13.843" stroke="#010101" stroke-width="1.5" stroke-linecap="round" stroke-linejoin="round"/>
<path d="M291.395 83.704c-.42 4.792-1.497 9.512-3.085 13.957a57.138 57.138 0 0 1-4.491 9.685c-2.757 4.729-10.826 16.605-29.667 19.562a59.207 59.207 0 0 1-13.802.511c-9.777-.767-19.38-3.916-27.668-9.138a58.16 58.16 0 0 1-5.011-3.542c-5.477-4.318-10.215-9.649-13.455-15.829-7.431-14.167-6.18-31.968 1.269-46.126 3.98-7.558 9.512-14.651 16.869-18.923a29.473 29.473 0 0 1 1.771-.958c10.735-5.358 20.402-7.23 28.964-6.746 25.103 1.451 40.695 23.241 45.797 37.08 2.428 6.6 3.14 13.611 2.51 20.466l-.001.001Z" fill="#a084e8" stroke="#010101" stroke-width="1.5" stroke-linecap="round" stroke-linejoin="round"/>
<path d="M240.826 143.197c-.25-8.831.413-7.165.12-15.869a5.395 5.395 0 0 1 3.123-.196c.387 11.506-.328 16.054-.328 16.054s-.578.942-2.915.011Z" fill="#fff" stroke="#010101" stroke-width="1.5" stroke-linecap="round" stroke-linejoin="round"/>
<path d="M234.219 144.294c5.971 0 9.743 0 16.504.143.834.018 1.557-.612 1.62-1.445l.004-.055c.062-.91-.673-1.672-1.585-1.676-5.536-.024-11.07-.374-16.602-.228a1.588 1.588 0 0 0-1.537 1.686l.005.081a1.599 1.599 0 0 0 1.591 1.494Z" fill="#fff" stroke="#010101" stroke-width="1.5" stroke-linecap="round" stroke-linejoin="round"/>
<path d="M228.86 14.484a197.522 197.522 0 0 1 3.281 12.669M254.997 126.767l2.773 10.674" stroke="#010101" stroke-width="1.5" stroke-linecap="round" stroke-linejoin="round"/>
<path d="M291.395 83.704c-5.194 1.68-10.89 1.178-16.203-.137-4.099-1.013-8.334-2.693-10.753-6.153-3.779-5.431-1.817-13.191-4.874-19.051-2.939-5.66-9.704-8.124-13.912-12.908-3.168-3.597-4.756-8.535-4.29-13.309.21-2.081.803-4.117 1.725-5.988 25.103 1.451 40.695 23.241 45.797 37.08 2.428 6.6 3.14 13.611 2.51 20.466ZM288.309 97.661a57.138 57.138 0 0 1-4.491 9.685c-2.757 4.729-10.826 16.605-29.667 19.562a59.207 59.207 0 0 1-13.802.511c-.904-2.675-1.561-5.422-1.807-8.234-.456-5.295.703-10.899 4.053-15.025 3.359-4.126 9.128-6.445 14.213-4.911 2.474.749 4.674 2.319 7.211 2.766 5.057.913 9.676-2.711 14.578-4.245 3.159-.986 6.536-.958 9.713-.11l-.001.001ZM228.86 101.322c-5.491 12.156-11.388 12.272-13.277 14.423-.858.977-1.844 1.807-2.903 2.538a58.16 58.16 0 0 1-5.011-3.542c-5.477-4.318-10.215-9.649-13.455-15.829-7.431-14.167-6.18-31.968 1.269-46.126 3.98-7.558 9.512-14.651 16.869-18.923 5.504 3.332 9.713 8.873 10.835 15.226 1.232 6.929-.739 14.532 2.437 20.822 1.515 2.994 4.091 10.697 4.876 13.965.885 3.642-.098 14.031-1.641 17.446h.001Z" fill="#d5ffe4" stroke="#010101" stroke-width="1.5" stroke-linecap="round" stroke-linejoin="round"/>
</g>
<defs>
<clipPath id="a">
<path fill="#fff" d="M0 0h292.362v163.072H0z"/>
</clipPath>
</defs>
</svg>