<svg fill="none" style="width:100%;height:100%" viewBox="0 0 329 152">
<g clip-path="url(#a)">
<path d="M240.642 148.605c19.099 0 59.577-.478 59.577-.478S281.636 48.099 268.783.75c-8.979 44.634-18.733 91.092-28.141 147.855Z" fill="#a084e8" stroke="#010101" stroke-width="1.5" stroke-linecap="round" stroke-linejoin="round"/>
<path d="M52.273 150.643 77.083 2.789 268.783.75l-24.81 147.854-191.7 2.039Z" fill="#E3E3FF" stroke="#010101" stroke-width="1.5" stroke-linecap="round" stroke-linejoin="round"/>
<path d="M225.977 127.17c7.346-34.692 11.052-70.889 18.841-105.484H95.108C89.035 55.824 82.83 90.91 76.499 125.822c48.949.915 101.269 1.36 149.479 1.348Z" fill="#fff" stroke="#010101" stroke-width="1.5" stroke-linecap="round" stroke-linejoin="round"/>
<path d="M132.589 21.686 113.65 126.364M207.406 21.686l-18.939 104.678M170.022 21.686l-18.939 104.678M90.64 46.828l148.43-.28M86.241 74.025l148.408.008M80.889 101.487l148.491.031" stroke="#010101" stroke-width="1.5" stroke-linecap="round" stroke-linejoin="round"/>
<path d="M164.849 65.634a316.001 316.001 0 0 1 39.452-18.316 366.707 366.707 0 0 0 19.204 32.89l-39.949 22.868c-6.285-11.994-11.969-24.301-18.707-37.442Z" fill="#d5ffe4" stroke="#010101" stroke-width="1.5" stroke-linecap="round" stroke-linejoin="round"/>
<path d="m39.941 31.9 88.119-1.792s2.847 25.766 4.528 38.889c-3.796-3.957-7.845-7.672-11.702-11.193-15.434 0-32.44.615-48.811.891-23.209.391-29.375.518-29.375.518L39.939 31.9h.002Z" fill="#a084e8" stroke="#010101" stroke-width="1.5" stroke-linecap="round" stroke-linejoin="round"/>
<path d="M53.376 51.639c1.138-4.483 2.408-9.204 5.702-12.451.765-.754 1.657-1.426 2.697-1.691 2.605-.663 5.152 1.413 6.516 3.729 1.364 2.316 2.089 5.023 3.825 7.075.922 1.089 2.228 1.992 3.653 1.927 2.866-.13 4.146-3.706 6.585-5.217 2.301-1.426 5.308-.803 7.803.245s4.923 2.5 7.626 2.64c4.111.214 7.888-2.654 12.004-2.562 2.732.061 5.844 1.328 7.953-.408" stroke="#010101" stroke-width="1.5" stroke-linecap="round" stroke-linejoin="round"/>
<path d="M71.264 150.255c-8.964-13.721-19.908-27.281-35.436-32.528-5.623-1.9-12.019-2.666-17.35-.056-1.24.607-2.437 1.43-3.108 2.636-.833 1.497-.727 3.33-.448 5.021 1.195 7.257 15.128 22.614 17.053 25.132 16.216 0 19.261-.206 39.289-.206v.001Z" fill="#8be8e5" stroke="#010101" stroke-width="1.5" stroke-linecap="round" stroke-linejoin="round"/>
<path d="M34.831 150.275a31.466 31.466 0 0 0-14.156-12.78c-4.246-1.916-9.081-2.862-13.604-1.748-2.382.587-4.78 1.897-5.771 4.141-.546 1.237-.61 2.635-.509 3.983.169 2.257.807 4.537 2.196 6.75 10.597.038 21.193.076 31.844-.346Z" fill="#8be8e5" stroke="#010101" stroke-width="1.5" stroke-linecap="round" stroke-linejoin="round"/>
<path d="M23.753 119.172c10.615 10.615 19.9 20.403 28.836 30.411l-28.836-30.411Z" fill="#fff"/>
<path d="M23.753 119.172c10.615 10.615 19.9 20.403 28.836 30.411" stroke="#010101" stroke-width="1.5" stroke-linecap="round" stroke-linejoin="round"/>
<path d="M9.236 135.43a128.005 128.005 0 0 0 9.584 14.759L9.236 135.43Z" fill="#fff"/>
<path d="M9.236 135.43a128.005 128.005 0 0 0 9.584 14.759" stroke="#010101" stroke-width="1.5" stroke-linecap="round" stroke-linejoin="round"/>
<path d="M293.684 90.738c-5.172.715-9.837 3.695-13.62 7.294-6.571 6.252-10.469 15.586-9.051 24.544.618 3.905 2.197 7.626 4.353 10.941 5.094 7.831 13.433 14.389 22.756 14.969 20.364 1.268 29.636-18.735 29.388-27.897-.303-11.205-7.334-33.514-33.826-29.851Z" fill="#fff" stroke="#010101" stroke-width="1.5" stroke-linecap="round" stroke-linejoin="round"/>
<path d="M294.515 95.129c-4.381.606-8.333 3.13-11.537 6.179-5.566 5.296-8.867 13.202-7.666 20.79.524 3.308 1.861 6.46 3.687 9.267 4.315 6.633 11.378 12.188 19.275 12.679 17.249 1.074 25.103-15.869 24.893-23.63-.257-9.491-6.212-28.387-28.652-25.285Z" fill="#fff" stroke="#010101" stroke-width="1.5" stroke-linecap="round" stroke-linejoin="round"/>
<path d="M299.119 120.249c-4.027-2.048-8.001-4.282-11.787-6.725l11.787 6.725Z" fill="#fff"/>
<path d="M299.119 120.249c-4.027-2.048-8.001-4.282-11.787-6.725" stroke="#010101" stroke-width="1.5" stroke-linecap="round" stroke-linejoin="round"/>
<path d="M314.737 108.082c-5.08 3.829-10.723 7.928-15.804 11.757l15.804-11.757Z" fill="#fff"/>
<path d="M314.737 108.082c-5.08 3.829-10.723 7.928-15.804 11.757" stroke="#010101" stroke-width="1.5" stroke-linecap="round" stroke-linejoin="round"/>
<path d="M298.933 122.086a2.247 2.247 0 1 0 0-4.494 2.247 2.247 0 0 0 0 4.494ZM186.643 63.123a1.784 1.784 0 1 0 0-3.568 1.784 1.784 0 0 0 0 3.568Z" fill="#010101" stroke="#010101" stroke-width="1.5" stroke-linecap="round" stroke-linejoin="round"/>
<path d="m178.034 77.46 27.824-13.396-27.824 13.396Z" fill="#010101"/>
<path d="m178.034 77.46 27.824-13.396" stroke="#010101" stroke-width="1.5" stroke-linecap="round" stroke-linejoin="round"/>
<path d="m181.359 85.803 29.028-13.89-29.028 13.89Z" fill="#010101"/>
<path d="m181.359 85.803 29.028-13.89" stroke="#010101" stroke-width="1.5" stroke-linecap="round" stroke-linejoin="round"/>
<path d="m186.982 93.048 8.607-5.422-8.607 5.422Z" fill="#010101"/>
<path d="m186.982 93.048 8.607-5.422" stroke="#010101" stroke-width="1.5" stroke-linecap="round" stroke-linejoin="round"/>
</g>
<defs>
<clipPath id="a">
<path fill="#fff" d="M0 0h328.265v151.393H0z"/>
</clipPath>
</defs>
</svg>