<svg fill="none" style="width:100%;height:100%" viewBox="0 0 243 213">
<g clip-path="url(#a)" stroke-width="1.5" stroke-linecap="round" stroke-linejoin="round">
<path d="M.75 46.787c7.84-1.106 14.51-7.926 15.441-15.789-.665 6.771 3.533 13.736 9.83 16.312-3.224.182-6.079 2.405-7.731 5.179-1.653 2.774-2.269 6.041-2.572 9.257-.173-7.97-7.293-15.157-14.968-14.959ZM218.229 113.794c7.149-1.009 13.23-7.227 14.079-14.397-.606 6.174 3.221 12.525 8.963 14.873-2.94.166-5.543 2.193-7.05 4.722-1.507 2.53-2.069 5.509-2.345 8.44-.158-7.267-6.649-13.819-13.647-13.638Z" stroke="#a084e8"/>
<path d="M170.496 133.01a11.326 11.326 0 0 1 2.212 5.002l-75.139 33.056C76.894 133.716 57.804 96.855 40.005 59.381 48.956 53.245 58 48.467 67.137 44.608c10.523 35.899 22.905 71.254 38.168 106.301 21.575-7.755 43.346-14.963 65.191-17.899Z" fill="#a084e8" stroke="#010101"/>
<path d="M197.045 123.462C182.8 86.816 168.502 38.154 156.385.75c-32.654 8.946-62.669 19.756-91.979 32.222 11.577 39.274 21.293 80.234 38.646 119.204 29.46-7.213 64.181-17.052 93.992-28.714h.001Z" fill="#E3E3FF" stroke="#010101"/>
<path d="m87.417 47.911 2.179 7.513c20.692-3.542 40.549-10.761 60.275-17.944l-2.046-7.68c-19.588 6.177-39.177 12.354-60.409 18.112l.001-.001Z" fill="#fff" stroke="#010101"/>
<path d="M95.123 69.129a1541.797 1541.797 0 0 0 57.267-17.458M100.085 80.064l57.545-18.195M105.2 92.021a3630.773 3630.773 0 0 1 56.726-18.632M109.416 103.399a973.425 973.425 0 0 0 58.277-16.879M114.758 115.611a212.712 212.712 0 0 1 15.527-5.853M142.83 123.128c-.535-3.943-.454-8.213 1.698-11.56 2.152-3.347 6.944-5.218 10.296-3.075 1.938 1.239 2.982 3.452 3.928 5.549 1.302-.905 1.781-2.564 2.379-4.032.598-1.468 1.656-3.028 3.238-3.129 1.165-.074 2.202.679 3.319 1.017 2.097.635 4.324-.22 6.347-1.061" stroke="#010101"/>
<path d="M42.919 175.411a151.23 151.23 0 0 1 28.06-7.991M83.945 180.129a431.945 431.945 0 0 1-10.544 18.275M102.852 189.165c.457 7.542.621 15.102.491 22.656" stroke="#a084e8"/>
</g>
<defs>
<clipPath id="a">
<path fill="#fff" d="M0 0h242.021v212.572H0z"/>
</clipPath>
</defs>
</svg>