<svg xmlns:bx="https://boxy-svg.com" viewBox="0 -100 1900 900">
<path fill="none" d="M0 0h1600v800H0z"/>
<g style="transform-origin:12.0003px 11.9999px">
<path d="M14.448 16.24a21.883 21.883 0 0 1-1.747 2.175c1.673 1.623 3.228 2.383 4.091 1.884.863-.498.982-2.225.413-4.484-.853.19-1.779.334-2.757.424Zm-1.31.087a27.48 27.48 0 0 1-2.275 0c.376.492.758.948 1.137 1.363.38-.415.761-.871 1.138-1.364Zm5.04-7.894c2.665.764 4.406 2.034 4.406 3.567 0 1.533-1.74 2.803-4.405 3.567.67 2.69.44 4.832-.887 5.598-1.327.767-3.297-.105-5.292-2.031-1.994 1.925-3.964 2.798-5.291 2.031-1.328-.766-1.557-2.908-.887-5.598-2.665-.764-4.405-2.034-4.405-3.567 0-1.533 1.74-2.803 4.405-3.567-.67-2.69-.44-4.832.887-5.599 1.327-.766 3.297.106 5.291 2.032 1.995-1.926 3.965-2.798 5.292-2.032 1.327.767 1.557 2.909.887 5.599Zm-.973-.248c.57-2.26.45-3.986-.413-4.485-.863-.498-2.418.262-4.09 1.885a21.932 21.932 0 0 1 1.746 2.175c.978.09 1.904.234 2.757.425Zm-10.41 7.63c-.569 2.26-.45 3.986.414 4.484.863.498 2.418-.261 4.09-1.884a21.866 21.866 0 0 1-1.746-2.176 21.883 21.883 0 0 1-2.757-.425Zm4.068-8.142a27.507 27.507 0 0 1 2.275 0A20.537 20.537 0 0 0 12 6.31c-.38.416-.76.872-1.137 1.364Zm-1.31.087a21.865 21.865 0 0 1 1.746-2.175C9.627 3.962 8.072 3.202 7.21 3.7c-.863.499-.983 2.226-.413 4.485.853-.19 1.779-.334 2.757-.425Zm4.34 7.52A25.373 25.373 0 0 0 15.788 12a25.363 25.363 0 0 0-1.893-3.28 25.37 25.37 0 0 0-3.787 0A25.368 25.368 0 0 0 8.213 12a25.39 25.39 0 0 0 1.894 3.28 25.398 25.398 0 0 0 3.787 0Zm1.285-.132c.615-.08 1.2-.182 1.75-.303a20.512 20.512 0 0 0-.612-1.667 27.546 27.546 0 0 1-1.137 1.97ZM8.822 8.851c-.615.08-1.2.183-1.75.304.17.536.375 1.094.613 1.667a27.518 27.518 0 0 1 1.137-1.97Zm-1.75 5.994c.55.121 1.135.223 1.75.303a27.528 27.528 0 0 1-1.137-1.97 20.51 20.51 0 0 0-.613 1.667Zm-.978-.245c.262-.834.6-1.708 1.01-2.6a21.88 21.88 0 0 1-1.01-2.6c-2.241.636-3.677 1.604-3.677 2.6s1.436 1.963 3.677 2.6ZM16.93 9.155a20.479 20.479 0 0 0-1.75-.304 27.541 27.541 0 0 1 1.137 1.97c.238-.572.442-1.13.613-1.666Zm.977.245c-.26.834-.6 1.708-1.01 2.6.41.892.75 1.766 1.01 2.6 2.242-.637 3.678-1.604 3.678-2.6s-1.436-1.963-3.678-2.6ZM12 13.879a1.88 1.88 0 1 1 0-3.758 1.88 1.88 0 0 1 0 3.758Z" style="fill:rgba(50,10,58,.596)" transform="matrix(6.63582 .93261 -.87581 6.23171 710.311 96.53)"/>
</g>
<path d="M19 6.41 17.59 5 12 10.59 6.41 5 5 6.41 10.59 12 5 17.59 6.41 19 12 13.41 17.59 19 19 17.59 13.41 12z" style="fill:rgba(161,161,170,.086)" transform="matrix(1.46185 0 0 1.35714 1372.225 422.2)"/>
<g style="transform-origin:204.062px 66.278px">
<path d="M54.301 34.795h17.426v-8.549H26.85v8.549h17.384v52.136h10.067V34.795Zm33.49 59.075 19.633-50.285H97.48L86.601 75.161c-.258.968-.461 1.756-.607 2.364l-.158.683h-.213c-.226-.967-.407-1.723-.541-2.266l-.224-.866-10.369-31.491H63.568l17.296 43.258-2.932 7.112c-1.814 3.611-4.562 5.417-8.245 5.417-1.275 0-2.692-.254-4.249-.762v8.17c1.388.366 3.116.55 5.184.55 7.366 0 13.089-4.487 17.169-13.46Zm50.546-51.305c5.519 0 9.821 1.932 12.906 5.795 3.085 3.863 4.627 9.052 4.627 15.567 0 7.219-1.74 13-5.222 17.343-3.481 4.343-8.236 6.515-14.264 6.515-5.548 0-9.821-2.426-12.821-7.276h-.17v26.311h-9.849V43.58h9.849v7.614h.17c3.368-5.753 8.292-8.629 14.774-8.629Zm-3.44 8.159c-3.506 0-6.327 1.234-8.462 3.702-2.135 2.469-3.202 5.554-3.202 9.257v5.343c0 3.142 1.011 5.807 3.033 7.994 2.022 2.188 4.588 3.282 7.698 3.282 3.648 0 6.511-1.41 8.59-4.229 2.078-2.818 3.117-6.752 3.117-11.801 0-4.235-.968-7.552-2.906-9.951-1.936-2.398-4.559-3.597-7.868-3.597Zm46.822-8.159c5.892 0 10.451 1.905 13.678 5.715 3.226 3.811 4.84 9.103 4.84 15.877v3.768H170.86c.113 4.008 1.34 7.099 3.683 9.272 2.343 2.174 5.562 3.26 9.659 3.26 4.602 0 8.824-1.383 12.668-4.149v7.918c-3.928 2.484-9.119 3.725-15.572 3.725-6.341 0-11.315-1.969-14.92-5.906-3.605-3.937-5.408-9.477-5.408-16.618 0-6.745 1.985-12.242 5.955-16.49 3.97-4.248 8.902-6.372 14.794-6.372Zm42.358-17.339c3.627 0 7.253.606 10.879 1.819v4.399c-3.569-1.608-7.38-2.411-11.431-2.411-4.136 0-7.416 1.043-9.838 3.13-2.422 2.086-3.633 4.737-3.633 7.951 0 3.102.828 5.569 2.486 7.402 1.657 1.833 5.234 4.329 10.73 7.487 5.694 3.214 9.484 6.069 11.368 8.565 1.884 2.495 2.826 5.364 2.826 8.607 0 4.653-1.622 8.445-4.866 11.377-3.244 2.933-7.826 4.399-13.748 4.399-2.096 0-4.511-.324-7.245-.973-2.734-.648-4.824-1.395-6.269-2.241v-4.78c4.364 2.764 8.783 4.145 13.259 4.145 4.76 0 8.372-.98 10.837-2.939 2.465-1.96 3.697-4.702 3.697-8.227 0-3.102-.828-5.576-2.486-7.423-1.598-1.781-4.994-4.184-10.188-7.211l-.585-.338c-6.176-3.582-10.086-6.578-11.729-8.988-1.643-2.412-2.464-5.196-2.464-8.354 0-4.286 1.671-7.923 5.014-10.912 3.343-2.989 7.805-4.484 13.386-4.484Zm-42.208 24.478c-2.798 0-5.168 1.034-7.112 3.102-1.944 2.069-3.14 4.774-3.588 8.117h19.889c-.028-3.541-.854-6.296-2.476-8.265-1.622-1.969-3.86-2.954-6.713-2.954Zm80.536 38.247c4.494 0 8.362-.986 11.605-2.958v-4.057c-3.243 2.31-7.054 3.465-11.435 3.465-4.779 0-8.626-1.704-11.542-5.113-2.915-3.409-4.373-7.917-4.373-13.523 0-5.803 1.593-10.529 4.779-14.178 3.186-3.648 7.339-5.472 12.459-5.472 3.727 0 7.154.957 10.283 2.873v-4.395c-3.129-1.352-6.358-2.028-9.686-2.028-6.429 0-11.691 2.19-15.787 6.571s-6.144 10.009-6.144 16.883c0 6.536 1.82 11.825 5.461 15.868 3.641 4.043 8.434 6.064 14.38 6.064Zm37.274-40.456c-1.295-.936-2.815-1.403-4.561-1.403-3.407 0-6.264 1.771-8.573 5.312-2.309 3.542-3.464 8.57-3.464 15.087v20.44h-3.8V43.415h3.8v9.646h.17c.985-3.314 2.547-5.892 4.687-7.734 2.14-1.841 4.618-2.762 7.433-2.762 1.605 0 3.041.255 4.308.765v4.165Zm10.199-3.91v43.346h-4.079V43.585h4.079Zm-1.827-17.339c.889 0 1.671.291 2.345.872.675.582 1.012 1.367 1.012 2.356 0 .93-.33 1.73-.99 2.398-.66.669-1.449 1.004-2.367 1.004-.862 0-1.622-.32-2.282-.96-.66-.64-.99-1.454-.99-2.442 0-.96.337-1.738 1.011-2.334.675-.596 1.428-.894 2.261-.894Zm31.248 16.319c5.494 0 9.783 1.895 12.868 5.685 3.085 3.791 4.628 8.942 4.628 15.451 0 7.243-1.768 13.098-5.304 17.565-3.536 4.466-8.205 6.7-14.009 6.7-6.479 0-11.269-2.917-14.368-8.75h-.168v27.604h-3.888V43.621h3.888v8.92h.168c1.55-3.185 3.768-5.643 6.656-7.376 2.888-1.734 6.064-2.6 9.529-2.6Zm-.158 3.57c-5.093 0-9.033 1.688-11.822 5.065-2.788 3.377-4.182 7.346-4.182 11.905v5.446c0 4.334 1.38 8.056 4.14 11.166 2.76 3.11 6.387 4.665 10.883 4.665 4.467 0 8.094-1.893 10.883-5.678 2.788-3.786 4.182-8.76 4.182-14.923 0-5.404-1.281-9.696-3.841-12.876-2.561-3.18-5.975-4.77-10.243-4.77Zm36.458 41.816c1.765 0 3.656-.478 5.674-1.435v-3.63c-1.849 1.041-3.573 1.562-5.17 1.562-2.242 0-3.832-.669-4.77-2.005-.939-1.337-1.408-3.497-1.408-6.48V47.428h11.348v-3.545h-11.348V31.346a31.35 31.35 0 0 1-1.934.633c-.672.225-1.316.45-1.933.675v11.229h-7.733v3.545h7.733V76.47c0 7.654 3.18 11.481 9.541 11.481Z" style="paint-order:stroke;fill:rgba(50,10,58,.792)" transform="matrix(.99034 0 0 .91942 300.243 240.836)"/>
</g>
<g fill="none" style="transform-origin:255.884px 156.547px">
<path d="M253.11 313.094c-1.733 0-3.351-.462-4.854-1.271l-15.371-9.13c-2.312-1.272-1.156-1.734-.462-1.965 3.12-1.04 3.698-1.272 6.934-3.12.347-.232.81-.116 1.156.115l11.789 7.05c.462.231 1.04.231 1.386 0l46.115-26.698c.462-.231.694-.694.694-1.271v-53.28c0-.579-.232-1.04-.694-1.272l-46.115-26.582c-.462-.232-1.04-.232-1.386 0l-46.115 26.582c-.462.231-.694.809-.694 1.271v53.28c0 .463.232 1.04.694 1.272l12.598 7.281c6.819 3.467 11.095-.578 11.095-4.623v-52.587c0-.693.578-1.387 1.387-1.387h5.894c.694 0 1.387.578 1.387 1.387v52.587c0 9.13-4.97 14.447-13.638 14.447-2.658 0-4.738 0-10.633-2.89l-12.135-6.934c-3.005-1.733-4.854-4.97-4.854-8.437v-53.28c0-3.467 1.849-6.704 4.854-8.437l46.114-26.698c2.89-1.618 6.82-1.618 9.709 0l46.114 26.698c3.005 1.733 4.855 4.97 4.855 8.437v53.28c0 3.467-1.85 6.704-4.855 8.437l-46.114 26.698c-1.503.694-3.236 1.04-4.854 1.04Zm14.216-36.637c-20.225 0-24.386-9.246-24.386-17.105 0-.694.578-1.387 1.387-1.387h6.01c.693 0 1.271.462 1.271 1.156.925 6.125 3.583 9.13 15.834 9.13 9.708 0 13.87-2.196 13.87-7.397 0-3.005-1.157-5.2-16.297-6.703-12.598-1.272-20.457-4.045-20.457-14.1 0-9.362 7.86-14.91 21.035-14.91 14.793 0 22.075 5.086 23 16.18 0 .348-.116.694-.347 1.041-.232.231-.578.462-.925.462h-6.01c-.578 0-1.156-.462-1.271-1.04-1.387-6.356-4.97-8.437-14.447-8.437-10.633 0-11.905 3.699-11.905 6.472 0 3.352 1.503 4.392 15.834 6.241 14.216 1.85 20.92 4.508 20.92 14.447-.116 10.171-8.437 15.95-23.116 15.95ZM110.028 104.712c0-2.08-1.156-4.046-3.005-5.086l-49.004-28.2c-.81-.463-1.734-.694-2.658-.81h-.463c-.924 0-1.849.347-2.658.81l-49.004 28.2c-1.85 1.04-3.005 3.005-3.005 5.086l.116 75.817c0 1.04.578 2.08 1.502 2.543.925.578 2.08.578 2.89 0l29.125-16.643c1.849-1.04 3.005-3.005 3.005-5.085v-35.482c0-2.08 1.155-4.045 3.005-5.085l12.366-7.166c.925-.578 1.965-.81 3.005-.81 1.04 0 2.08.232 2.89.81l12.366 7.166c1.85 1.04 3.005 3.004 3.005 5.085v35.482c0 2.08 1.156 4.045 3.005 5.085l29.125 16.643a2.82 2.82 0 0 0 3.005 0c.925-.463 1.503-1.503 1.503-2.543l-.116-75.817ZM345.571.347c-.924-.463-2.08-.463-2.89 0-.924.578-1.502 1.502-1.502 2.542v75.125c0 .693-.346 1.386-1.04 1.849-.693.346-1.387.346-2.08 0l-12.251-7.05a5.957 5.957 0 0 0-5.895 0l-49.004 28.316c-1.849 1.04-3.005 3.005-3.005 5.085v56.516c0 2.08 1.156 4.046 3.005 5.086l49.004 28.316a5.957 5.957 0 0 0 5.895 0l49.004-28.316c1.849-1.04 3.005-3.005 3.005-5.086V21.844c0-2.196-1.156-4.16-3.005-5.201L345.572.347Zm-4.507 143.776c0 .578-.231 1.04-.694 1.271l-16.758 9.708a1.714 1.714 0 0 1-1.503 0l-16.758-9.708c-.463-.231-.694-.809-.694-1.271v-19.417c0-.578.231-1.04.694-1.271l16.758-9.709a1.714 1.714 0 0 1 1.503 0l16.758 9.709c.463.23.694.809.694 1.271v19.417Z" style="fill:rgba(151,151,154,.33)" transform="matrix(-.18481 .31607 -.2914 -.19479 -2391.727 2583.33)"/>
<path d="M107.6 53.743c1.85-1.04 2.89-3.005 2.89-5.086V34.904c0-2.08-1.155-4.045-2.89-5.085l-48.656-28.2a5.957 5.957 0 0 0-5.895 0L4.045 29.933c-1.85 1.04-3.005 3.005-3.005 5.085v56.517c0 2.08 1.156 4.045 3.005 5.085l48.657 27.738c1.85 1.04 4.046 1.04 5.78 0l29.471-16.411c.925-.463 1.503-1.503 1.503-2.543 0-1.04-.578-2.08-1.503-2.543L38.718 74.546c-.925-.578-1.503-1.502-1.503-2.542V54.32c0-1.04.578-2.08 1.503-2.543l15.371-8.784a2.821 2.821 0 0 1 3.005 0l15.372 8.784c.925.578 1.502 1.502 1.502 2.543v13.87c0 1.04.578 2.08 1.503 2.542a2.82 2.82 0 0 0 3.005 0l29.125-16.99Z" style="fill:rgba(151,151,154,.33)" transform="matrix(-.18481 .31607 -.2914 -.19479 -2486.389 2696.355)"/>
<path d="M55.245 51.084a1.05 1.05 0 0 1 1.156 0l9.362 5.432c.346.232.577.578.577 1.04v10.865c0 .462-.23.809-.577 1.04L56.4 74.893a1.05 1.05 0 0 1-1.156 0l-9.361-5.432c-.347-.231-.578-.578-.578-1.04V57.557c0-.463.23-.81.578-1.04l9.361-5.433Z" style="fill:rgba(151,151,154,.33)" transform="matrix(-.18481 .31607 -.2914 -.19479 -2486.389 2696.355)"/>
<g transform="matrix(-.18481 .31607 -.2914 -.19479 -2437.048 2611.973)">
<mask id="a" fill="#fff">
<path d="M57.903 1.85a5.957 5.957 0 0 0-5.894 0L3.352 29.933c-1.85 1.04-2.89 3.005-2.89 5.085v56.286c0 2.08 1.156 4.045 2.89 5.085l48.657 28.085a5.957 5.957 0 0 0 5.894 0l48.658-28.085c1.849-1.04 2.89-3.005 2.89-5.085V35.019c0-2.08-1.157-4.045-2.89-5.085L57.903 1.85Z"/>
</mask>
<path d="M57.903 1.85a5.957 5.957 0 0 0-5.894 0L3.352 29.933c-1.85 1.04-2.89 3.005-2.89 5.085v56.286c0 2.08 1.156 4.045 2.89 5.085l48.657 28.085a5.957 5.957 0 0 0 5.894 0l48.658-28.085c1.849-1.04 2.89-3.005 2.89-5.085V35.019c0-2.08-1.157-4.045-2.89-5.085L57.903 1.85Z" style="fill:rgba(151,151,154,.33)"/>
<g mask="url(#a)">
<path d="M51.893 1.85 3.121 29.933C1.27 30.974 0 32.94 0 35.02v56.286c0 1.387.578 2.658 1.502 3.698L56.285 1.156c-1.387-.231-3.005-.116-4.392.693Zm4.739 123.203c.462-.116.925-.347 1.387-.578l48.773-28.085c1.85-1.04 3.005-3.005 3.005-5.085V35.019c0-1.502-.694-3.005-1.734-4.045l-51.43 94.079Zm50.044-95.119L57.788 1.85a8.025 8.025 0 0 0-1.503-.578L1.502 95.12a6.082 6.082 0 0 0 1.619 1.387l48.888 28.085c1.387.809 3.005 1.04 4.507.577l51.432-94.078c-.347-.462-.81-.81-1.272-1.156Z" style="fill:rgba(151,151,154,.33)"/>
</g>
<g mask="url(#a)">
<path d="M109.797 100.55V44.266c0-2.08-1.271-4.045-3.12-5.085l-48.89-28.085a5.106 5.106 0 0 0-1.848-.693l53.511 91.42c.231-.347.347-.809.347-1.271ZM3.12 39.18C1.272 40.22 0 42.185 0 44.265v56.286c0 2.08 1.387 4.045 3.12 5.085l48.889 28.085c1.156.693 2.427.925 3.814.693L3.467 39.064l-.346.116Z" style="fill:rgba(151,151,154,.33)" transform="translate(0 -9.246)"/>
<path fill-rule="evenodd" d="m50.391.809-.693.347h.924l-.231-.347Zm56.401 104.827c1.387-.809 2.427-2.196 2.89-3.698L56.053 10.402c-1.387-.231-2.89-.116-4.16.693L3.351 39.065l52.355 95.465a8.057 8.057 0 0 0 2.196-.693l48.889-28.2Zm4.508-.924-.347-.578v.809l.346-.231Z" style="fill:rgba(151,151,154,.33)" transform="translate(0 -9.246)"/>
<path d="m106.792 105.636-48.773 28.085a6.973 6.973 0 0 1-2.196.693l.925 1.734 54.089-31.32v-.694l-1.387-2.312c-.231 1.618-1.271 3.005-2.658 3.814Z" fill-rule="evenodd" style="fill:rgba(151,151,154,.33)" transform="translate(0 -9.246)"/>
<path d="m106.792 105.636-48.773 28.085a6.973 6.973 0 0 1-2.196.693l.925 1.734 54.089-31.32v-.694l-1.387-2.312c-.231 1.618-1.271 3.005-2.658 3.814Z" fill-rule="evenodd" style="fill:rgba(151,151,154,.33)" transform="translate(0 -9.246)"/>
</g>
</g>
</g>
<path d="M1179.55 572.997c0 1.76.18 3.186.52 4.232.41 1.178.92 2.322 1.52 3.425.24.38.32.76.32 1.094 0 .475-.28.95-.89 1.426l-3 1.999c-.42.284-.86.427-1.23.427-.48 0-.95-.238-1.43-.666a14.3 14.3 0 0 1-1.72-2.236c-.48-.807-.95-1.712-1.47-2.805-3.71 4.374-8.36 6.563-13.99 6.563-3.99 0-7.17-1.142-9.51-3.425-2.32-2.283-3.52-5.326-3.52-9.131 0-4.043 1.44-7.324 4.33-9.797 2.9-2.474 6.75-3.71 11.65-3.71 1.63 0 3.28.143 5.04.381 1.76.238 3.57.617 5.47 1.045v-3.471c0-3.615-.75-6.136-2.23-7.61-1.52-1.475-4.08-2.188-7.75-2.188-1.67 0-3.37.191-5.13.619-1.76.427-3.47.952-5.15 1.617-.75.332-1.32.523-1.66.618-.33.096-.57.143-.76.143-.66 0-1-.476-1-1.475v-2.331c0-.76.1-1.331.34-1.664.24-.332.66-.665 1.33-.998 1.67-.857 3.66-1.57 5.99-2.141 2.32-.618 4.8-.904 7.42-.904 5.66 0 9.8 1.284 12.47 3.854 2.61 2.567 3.93 6.467 3.93 11.699v15.41h.11Zm-19.32 7.228c1.58 0 3.19-.286 4.9-.856 1.72-.57 3.24-1.617 4.52-3.043.76-.904 1.33-1.902 1.62-3.045.29-1.14.46-2.521.46-4.138v-1.997a38.316 38.316 0 0 0-4.36-.809 36.816 36.816 0 0 0-4.48-.286c-3.19 0-5.51.62-7.08 1.904-1.58 1.284-2.33 3.091-2.33 5.469 0 2.235.57 3.9 1.75 5.041 1.15 1.19 2.82 1.76 5 1.76Zm38.19 5.137c-.85 0-1.43-.143-1.8-.475-.39-.286-.72-.953-1-1.856l-11.19-36.764c-.28-.951-.41-1.569-.41-1.902 0-.761.37-1.19 1.13-1.19h4.67c.89 0 1.52.143 1.85.477.39.284.68.951.95 1.855l8 31.484 7.42-31.484c.24-.952.52-1.571.89-1.855.39-.285 1.04-.477 1.91-.477h3.8c.91 0 1.52.143 1.91.477.37.284.72.951.89 1.855l7.51 31.865 8.24-31.865c.28-.952.63-1.571.95-1.855.39-.285.99-.477 1.85-.477h4.42c.77 0 1.2.381 1.2 1.19 0 .238-.04.476-.09.761a7.19 7.19 0 0 1-.34 1.189l-11.46 36.764c-.29.952-.61 1.569-1 1.855-.38.285-1.01.476-1.81.476h-4.08c-.91 0-1.52-.143-1.92-.476-.37-.333-.71-.951-.89-1.903l-7.38-30.676-7.32 30.628c-.23.951-.51 1.57-.91 1.904-.37.332-1.03.475-1.89.475h-4.1Zm61.13 1.285c-2.48 0-4.95-.286-7.34-.858-2.37-.57-4.23-1.188-5.47-1.901-.76-.429-1.29-.904-1.46-1.331-.19-.42-.3-.874-.3-1.333v-2.425c0-.999.39-1.475 1.1-1.475.3.001.58.049.85.143.29.095.71.285 1.2.476 1.68.738 3.43 1.296 5.23 1.664a28.6 28.6 0 0 0 5.66.571c3 0 5.33-.523 6.93-1.57 1.63-1.046 2.48-2.568 2.48-4.518 0-1.331-.42-2.425-1.29-3.33-.84-.903-2.47-1.712-4.79-2.472l-6.9-2.14c-3.48-1.094-6.05-2.711-7.61-4.852-1.56-2.092-2.39-4.422-2.39-6.896 0-1.997.44-3.757 1.29-5.28.87-1.522 2-2.853 3.43-3.899 1.43-1.094 3.04-1.903 4.95-2.473 1.91-.571 3.9-.809 6-.809 1.03 0 2.14.048 3.18.191 1.09.143 2.09.332 3.08.523.96.238 1.86.476 2.73.76.84.285 1.52.571 1.99.856.66.381 1.13.762 1.42 1.19.3.38.42.903.42 1.57v2.234c0 .999-.36 1.523-1.08 1.523-.39 0-1-.191-1.8-.572-2.72-1.237-5.76-1.854-9.15-1.854-2.71 0-4.84.428-6.31 1.332-1.48.903-2.24 2.282-2.24 4.232 0 1.333.48 2.474 1.43 3.377.94.904 2.7 1.808 5.23 2.616l6.75 2.14c3.42 1.094 5.89 2.617 7.37 4.566 1.48 1.949 2.2 4.185 2.2 6.658 0 2.045-.45 3.9-1.24 5.518-.87 1.617-2 3.044-3.47 4.185-1.49 1.188-3.25 2.046-5.29 2.664-2.14.665-4.38.999-6.79.999Zm8.99 23.113c-15.66 11.557-38.4 17.693-57.94 17.693-27.4 0-52.07-10.13-70.72-26.967-1.48-1.331-.15-3.139 1.61-2.093 20.17 11.7 45.05 18.787 70.78 18.787 17.36 0 36.42-3.615 53.97-11.034 2.63-1.189 4.86 1.712 2.3 3.614Zm6.51-7.419c-2-2.569-13.22-1.238-18.32-.618-1.52.191-1.76-1.142-.37-2.14 8.94-6.28 23.62-4.471 25.34-2.379 1.71 2.141-.48 16.836-8.84 23.875-1.28 1.095-2.52.524-1.96-.903 1.91-4.708 6.15-15.314 4.15-17.835Z" style="fill:rgba(50,10,58,.714);transform-box:fill-box;transform-origin:50% 50%"/>
<g transform="matrix(.7207 0 0 .7207 699.744 391.787)">
<bx:title>Next.js</bx:title>
<path d="M429.543.043v16.46h-35.377V103.1h-17.69V16.504h-36.114V.043h89.181Zm3.977 93.24c1.246 0 2.336.448 3.259 1.346.936.897 1.402 1.972 1.415 3.224-.013.85-.229 1.63-.66 2.327a4.776 4.776 0 0 1-1.714 1.665 4.422 4.422 0 0 1-2.3.626c-1.296 0-2.398-.449-3.32-1.346-.923-.898-1.38-1.985-1.368-3.272-.011-1.252.445-2.327 1.368-3.224.922-.898 2.024-1.346 3.32-1.346ZM82.916 103.1 17.69 22.028v81.03H0V0h22.111l82.406 102.329.001-85.825-.007-16.461h89.18v16.46h-71.484v26.48h57.488v16.461h-57.488V86.64h71.485v16.46H82.916Zm167.469-43.813L261.978 73.7l-23.755 29.522h-23.215l35.377-43.935ZM238.223.086l29.93 37.17L297.989.2l23.15-.035-41.396 51.485 41.463 51.493h-23.217L215.074.086h23.149Zm225.488 58.97h7.838v30.2c-.011 2.775-.612 5.148-1.785 7.145-1.187 1.995-2.83 3.519-4.938 4.594-2.098 1.062-4.555 1.606-7.348 1.606-2.553 0-4.841-.46-6.879-1.358-2.038-.898-3.655-2.244-4.842-4.016-1.2-1.771-1.787-3.98-1.787-6.625h7.852c.012 1.157.275 2.16.778 3a5.01 5.01 0 0 0 2.086 1.924c.898.45 1.93.674 3.091.674 1.26 0 2.338-.26 3.213-.792.874-.52 1.546-1.299 2.014-2.338.455-1.028.695-2.303.707-3.815v-30.2Zm40.09 11.81c-.19-1.83-1.03-3.26-2.492-4.275-1.475-1.028-3.38-1.535-5.718-1.535-1.64 0-3.055.248-4.23.732-1.174.496-2.085 1.157-2.709 1.996-.622.838-.934 1.795-.959 2.87 0 .897.216 1.677.635 2.326.42.662.983 1.217 1.714 1.666.72.46 1.522.838 2.398 1.145.886.307 1.774.567 2.66.78l4.087 1.004c1.643.378 3.237.885 4.759 1.535 1.521.638 2.9 1.453 4.11 2.433 1.211.98 2.17 2.161 2.877 3.543.707 1.382 1.067 3 1.067 4.866 0 2.515-.647 4.724-1.954 6.637-1.306 1.902-3.188 3.39-5.657 4.465-2.457 1.063-5.43 1.606-8.929 1.606-3.38 0-6.328-.52-8.81-1.559-2.492-1.027-4.434-2.54-5.837-4.524-1.402-1.984-2.157-4.405-2.265-7.251h7.768c.107 1.488.587 2.728 1.402 3.732.826.992 1.905 1.724 3.224 2.22 1.33.485 2.816.733 4.458.733 1.714 0 3.224-.26 4.53-.768 1.295-.508 2.313-1.216 3.045-2.138.743-.91 1.115-1.984 1.127-3.212-.012-1.122-.349-2.055-.996-2.788-.659-.732-1.57-1.346-2.733-1.842-1.173-.496-2.54-.945-4.098-1.334l-4.962-1.252c-3.584-.91-6.424-2.291-8.498-4.146-2.085-1.854-3.116-4.31-3.116-7.393 0-2.527.695-4.748 2.098-6.65 1.39-1.9 3.296-3.377 5.705-4.428 2.42-1.063 5.154-1.583 8.197-1.583 3.093 0 5.801.52 8.139 1.583 2.336 1.051 4.171 2.515 5.5 4.381 1.331 1.867 2.027 4.004 2.063 6.425h-7.6Z" style="fill:rgba(50,10,58,.8)"/>
</g>
<g transform="matrix(5.33333 0 0 5.33333 499.545 561.163)" style="transform-origin:12px 12px">
<bx:title>Cloudflare</bx:title>
<path d="M16.509 16.845c.147-.507.09-.971-.155-1.316-.225-.316-.605-.499-1.062-.52l-8.66-.113a.156.156 0 0 1-.133-.07.194.194 0 0 1-.02-.156.24.24 0 0 1 .203-.156l8.736-.113c1.035-.049 2.16-.886 2.554-1.913l.499-1.302a.27.27 0 0 0 .014-.168 5.689 5.689 0 0 0-10.938-.584 2.584 2.584 0 0 0-1.793-.498 2.561 2.561 0 0 0-2.223 3.18A3.634 3.634 0 0 0 0 16.751c0 .175.014.351.035.527a.174.174 0 0 0 .17.148h15.98c.091 0 .176-.065.204-.155l.12-.427zm2.757-5.564c-.077 0-.161 0-.239.011-.056 0-.105.042-.127.098l-.337 1.174c-.148.507-.092.971.154 1.317.225.316.605.498 1.062.52l1.844.113c.056 0 .105.026.133.07a.203.203 0 0 1 .021.156.24.24 0 0 1-.204.156l-1.92.112c-1.042.049-2.159.887-2.553 1.914l-.141.358c-.028.072.021.142.099.142h6.597a.174.174 0 0 0 .17-.126c.111-.408.175-.837.175-1.28a4.74 4.74 0 0 0-4.734-4.727" style="fill:rgba(50,10,58,.45)"/>
</g>
<path d="M64 384c35.328 0 64-28.672 64-64v-64H64c-35.328 0-64 28.672-64 64s28.672 64 64 64ZM0 192c0-35.328 28.672-64 64-64h64v128H64c-35.328 0-64-28.672-64-64ZM0 64C0 28.672 28.672 0 64 0h64v128H64C28.672 128 0 99.328 0 64ZM128 0h64c35.328 0 64 28.672 64 64s-28.672 64-64 64h-64V0ZM256 192c0 35.328-28.672 64-64 64s-64-28.672-64-64 28.672-64 64-64 64 28.672 64 64Z" style="fill:rgba(50,10,58,.263)" transform="translate(957.744 246.124) scale(.21875)"/>
<g fill="none" style="transform-origin:255.884px 156.547px">
<path d="M253.11 313.094c-1.733 0-3.351-.462-4.854-1.271l-15.371-9.13c-2.312-1.272-1.156-1.734-.462-1.965 3.12-1.04 3.698-1.272 6.934-3.12.347-.232.81-.116 1.156.115l11.789 7.05c.462.231 1.04.231 1.386 0l46.115-26.698c.462-.231.694-.694.694-1.271v-53.28c0-.579-.232-1.04-.694-1.272l-46.115-26.582c-.462-.232-1.04-.232-1.386 0l-46.115 26.582c-.462.231-.694.809-.694 1.271v53.28c0 .463.232 1.04.694 1.272l12.598 7.281c6.819 3.467 11.095-.578 11.095-4.623v-52.587c0-.693.578-1.387 1.387-1.387h5.894c.694 0 1.387.578 1.387 1.387v52.587c0 9.13-4.97 14.447-13.638 14.447-2.658 0-4.738 0-10.633-2.89l-12.135-6.934c-3.005-1.733-4.854-4.97-4.854-8.437v-53.28c0-3.467 1.849-6.704 4.854-8.437l46.114-26.698c2.89-1.618 6.82-1.618 9.709 0l46.114 26.698c3.005 1.733 4.855 4.97 4.855 8.437v53.28c0 3.467-1.85 6.704-4.855 8.437l-46.114 26.698c-1.503.694-3.236 1.04-4.854 1.04Zm14.216-36.637c-20.225 0-24.386-9.246-24.386-17.105 0-.694.578-1.387 1.387-1.387h6.01c.693 0 1.271.462 1.271 1.156.925 6.125 3.583 9.13 15.834 9.13 9.708 0 13.87-2.196 13.87-7.397 0-3.005-1.157-5.2-16.297-6.703-12.598-1.272-20.457-4.045-20.457-14.1 0-9.362 7.86-14.91 21.035-14.91 14.793 0 22.075 5.086 23 16.18 0 .348-.116.694-.347 1.041-.232.231-.578.462-.925.462h-6.01c-.578 0-1.156-.462-1.271-1.04-1.387-6.356-4.97-8.437-14.447-8.437-10.633 0-11.905 3.699-11.905 6.472 0 3.352 1.503 4.392 15.834 6.241 14.216 1.85 20.92 4.508 20.92 14.447-.116 10.171-8.437 15.95-23.116 15.95ZM110.028 104.712c0-2.08-1.156-4.046-3.005-5.086l-49.004-28.2c-.81-.463-1.734-.694-2.658-.81h-.463c-.924 0-1.849.347-2.658.81l-49.004 28.2c-1.85 1.04-3.005 3.005-3.005 5.086l.116 75.817c0 1.04.578 2.08 1.502 2.543.925.578 2.08.578 2.89 0l29.125-16.643c1.849-1.04 3.005-3.005 3.005-5.085v-35.482c0-2.08 1.155-4.045 3.005-5.085l12.366-7.166c.925-.578 1.965-.81 3.005-.81 1.04 0 2.08.232 2.89.81l12.366 7.166c1.85 1.04 3.005 3.004 3.005 5.085v35.482c0 2.08 1.156 4.045 3.005 5.085l29.125 16.643c.925.578 2.08.578 3.005 0 .925-.463 1.503-1.503 1.503-2.543l-.116-75.817ZM345.571.347c-.924-.463-2.08-.463-2.89 0-.924.578-1.502 1.502-1.502 2.542v75.125c0 .693-.346 1.386-1.04 1.849-.693.346-1.387.346-2.08 0l-12.251-7.05a5.957 5.957 0 0 0-5.895 0l-49.004 28.316c-1.849 1.04-3.005 3.005-3.005 5.085v56.516c0 2.08 1.156 4.046 3.005 5.086l49.004 28.316a5.957 5.957 0 0 0 5.895 0l49.004-28.316c1.849-1.04 3.005-3.005 3.005-5.086V21.844c0-2.196-1.156-4.16-3.005-5.201L345.572.347Zm-4.507 143.776c0 .578-.231 1.04-.694 1.271l-16.758 9.708a1.714 1.714 0 0 1-1.503 0l-16.758-9.708c-.463-.231-.694-.809-.694-1.271v-19.417c0-.578.231-1.04.694-1.271l16.758-9.709a1.714 1.714 0 0 1 1.503 0l16.758 9.709c.463.23.694.809.694 1.271v19.417Z" style="fill:rgba(50,10,58,.49)" transform="matrix(.25034 0 0 .25034 952.759 74.43)"/>
<path d="M107.6 53.743c1.85-1.04 2.89-3.005 2.89-5.086V34.904c0-2.08-1.155-4.045-2.89-5.085l-48.656-28.2a5.957 5.957 0 0 0-5.895 0L4.045 29.933c-1.85 1.04-3.005 3.005-3.005 5.085v56.517c0 2.08 1.156 4.045 3.005 5.085l48.657 27.738c1.85 1.04 4.046 1.04 5.78 0l29.471-16.411c.925-.463 1.503-1.503 1.503-2.543 0-1.04-.578-2.08-1.503-2.543L38.718 74.546c-.925-.578-1.503-1.502-1.503-2.542V54.32c0-1.04.578-2.08 1.503-2.543l15.371-8.784a2.821 2.821 0 0 1 3.005 0l15.372 8.784c.925.578 1.502 1.502 1.502 2.543V68.19c0 1.04.578 2.08 1.503 2.542.924.578 2.08.578 3.005 0l29.125-16.99Z" style="fill:rgba(50,10,58,.49)" transform="matrix(.25034 0 0 .25034 1053.157 92.079)"/>
<path d="M55.245 51.084a1.05 1.05 0 0 1 1.156 0l9.362 5.432c.346.232.577.578.577 1.04v10.865c0 .462-.23.809-.577 1.04L56.4 74.893a1.05 1.05 0 0 1-1.156 0l-9.361-5.432c-.347-.231-.578-.578-.578-1.04V57.557c0-.463.23-.81.578-1.04l9.361-5.433Z" style="fill:rgba(50,10,58,.49)" transform="matrix(.25034 0 0 .25034 1053.157 92.079)"/>
<g transform="matrix(.25034 0 0 .25034 986.321 92.079)">
<mask id="b" fill="#fff">
<path d="M57.903 1.85a5.957 5.957 0 0 0-5.894 0L3.352 29.933c-1.85 1.04-2.89 3.005-2.89 5.085v56.286c0 2.08 1.156 4.045 2.89 5.085l48.657 28.085a5.957 5.957 0 0 0 5.894 0l48.658-28.085c1.849-1.04 2.89-3.005 2.89-5.085V35.019c0-2.08-1.157-4.045-2.89-5.085L57.903 1.85Z"/>
</mask>
<path d="M57.903 1.85a5.957 5.957 0 0 0-5.894 0L3.352 29.933c-1.85 1.04-2.89 3.005-2.89 5.085v56.286c0 2.08 1.156 4.045 2.89 5.085l48.657 28.085a5.957 5.957 0 0 0 5.894 0l48.658-28.085c1.849-1.04 2.89-3.005 2.89-5.085V35.019c0-2.08-1.157-4.045-2.89-5.085L57.903 1.85Z" style="fill:rgba(50,10,58,.49)"/>
<g mask="url(#b)">
<path d="M51.893 1.85 3.121 29.933C1.27 30.974 0 32.94 0 35.02v56.286c0 1.387.578 2.658 1.502 3.698L56.285 1.156c-1.387-.231-3.005-.116-4.392.693ZM56.632 125.053c.462-.116.925-.347 1.387-.578l48.773-28.085c1.85-1.04 3.005-3.005 3.005-5.085V35.019c0-1.502-.694-3.005-1.734-4.045l-51.43 94.079ZM106.676 29.934 57.788 1.85a8.025 8.025 0 0 0-1.503-.578L1.502 95.12a6.082 6.082 0 0 0 1.619 1.387l48.888 28.085c1.387.809 3.005 1.04 4.507.577l51.432-94.078c-.347-.462-.81-.81-1.272-1.156Z" style="fill:rgba(50,10,58,.49)"/>
</g>
<g mask="url(#b)">
<path d="M109.797 100.55V44.266c0-2.08-1.271-4.045-3.12-5.085l-48.89-28.085a5.106 5.106 0 0 0-1.848-.693l53.511 91.42c.231-.347.347-.809.347-1.271ZM3.12 39.18C1.272 40.22 0 42.185 0 44.265v56.286c0 2.08 1.387 4.045 3.12 5.085l48.889 28.085c1.156.693 2.427.925 3.814.693L3.467 39.064l-.346.116Z" style="fill:rgba(50,10,58,.49)" transform="translate(0 -9.246)"/>
<path fill-rule="evenodd" d="m50.391.809-.693.347h.924l-.231-.347ZM106.792 105.636c1.387-.809 2.427-2.196 2.89-3.698L56.053 10.402c-1.387-.231-2.89-.116-4.16.693L3.351 39.065l52.355 95.465a8.057 8.057 0 0 0 2.196-.693l48.889-28.2ZM111.3 104.712l-.347-.578v.809l.346-.231Z" style="fill:rgba(50,10,58,.49)" transform="translate(0 -9.246)"/>
<path d="m106.792 105.636-48.773 28.085a6.973 6.973 0 0 1-2.196.693l.925 1.734 54.089-31.32v-.694l-1.387-2.312c-.231 1.618-1.271 3.005-2.658 3.814Z" fill-rule="evenodd" style="fill:rgba(50,10,58,.49)" transform="translate(0 -9.246)"/>
<path d="m106.792 105.636-48.773 28.085a6.973 6.973 0 0 1-2.196.693l.925 1.734 54.089-31.32v-.694l-1.387-2.312c-.231 1.618-1.271 3.005-2.658 3.814Z" fill-rule="evenodd" style="fill:rgba(50,10,58,.49)" transform="translate(0 -9.246)"/>
</g>
</g>
</g>
<path d="M128 0C93.867 0 72.533 17.067 64 51.2 76.8 34.133 91.733 27.733 108.8 32c9.737 2.434 16.697 9.499 24.401 17.318C145.751 62.057 160.275 76.8 192 76.8c34.133 0 55.467-17.067 64-51.2-12.8 17.067-27.733 23.467-44.8 19.2-9.737-2.434-16.697-9.499-24.401-17.318C174.249 14.743 159.725 0 128 0ZM64 76.8C29.867 76.8 8.533 93.867 0 128c12.8-17.067 27.733-23.467 44.8-19.2 9.737 2.434 16.697 9.499 24.401 17.318C81.751 138.857 96.275 153.6 128 153.6c34.133 0 55.467-17.067 64-51.2-12.8 17.067-27.733 23.467-44.8 19.2-9.737-2.434-16.697-9.499-24.401-17.318C110.249 91.543 95.725 76.8 64 76.8Z" style="fill:rgba(50,10,58,.46)" transform="matrix(.38672 0 0 .38672 1239.894 363.774)"/>
<g transform="matrix(.3789 0 0 .3789 771.782 591.787)">
<bx:title>astro</bx:title>
<path d="M84.026 4.223c1.376 1.708 2.078 4.014 3.482 8.626l30.668 100.744A127.624 127.624 0 0 0 81.51 101.18L61.543 33.702a2.599 2.599 0 0 0-4.987.008L36.83 101.146A127.617 127.617 0 0 0 0 113.578L30.818 12.825c1.409-4.603 2.113-6.905 3.49-8.61a11.329 11.329 0 0 1 4.59-3.398C40.933 0 43.34 0 48.155 0h22.012c4.82 0 7.23 0 9.266.82a11.33 11.33 0 0 1 4.594 3.403ZM87.695 118.388c-5.055 4.323-15.146 7.271-26.77 7.271-14.266 0-26.223-4.441-29.396-10.414-1.135 3.423-1.389 7.34-1.389 9.844 0 0-.747 12.29 7.8 20.837a8.037 8.037 0 0 1 8.037-8.036c7.607 0 7.599 6.637 7.592 12.022v.48c0 8.173 4.995 15.18 12.099 18.133a16.473 16.473 0 0 1-1.657-7.223c0-7.795 4.577-10.698 9.896-14.07 4.231-2.685 8.933-5.667 12.174-11.649a21.968 21.968 0 0 0 2.65-10.494c0-2.337-.363-4.588-1.036-6.701ZM188.585 112.018c12.828 0 22.45-4.564 26.396-12.334 0 3.7.245 7.524.863 10.484h21.09l-.06-.266c-.935-4.25-1.408-10.009-1.418-17.505V73.165c0-18.008-10.609-26.518-34.166-26.518-20.599 0-34.413 8.51-36.016 22.448h21.955c.74-6.044 5.796-9.374 14.061-9.374 8.14 0 12.703 3.33 12.703 10.238v1.85l-22.324 1.973c-10.746 1.1-16.898 2.923-21.208 5.832l-.13.088c-4.564 3.084-6.907 7.771-6.907 13.568 0 11.594 9.62 18.748 25.161 18.748Zm8.141-12.828c-7.155 0-11.47-2.836-11.47-7.4 0-4.687 3.575-7.154 12.58-8.264l16.527-1.727v3.7c0 8.264-7.153 13.691-17.637 13.691Zm84.694 12.828c21.463 0 32.44-8.017 32.44-20.968 0-10.73-6.168-16.651-21.091-18.625l-18.627-2.097c-5.302-.74-7.523-2.097-7.523-5.057 0-3.577 3.577-5.18 11.717-5.18 11.224 0 18.995 2.59 25.287 7.647l9.99-9.99c-6.908-7.154-18.871-11.101-33.672-11.101-20.845 0-32.44 7.4-32.44 19.858 0 10.854 7.154 16.898 21.954 18.87l16.776 1.974c6.66.864 8.634 2.097 8.634 5.304 0 3.7-3.701 5.674-12.335 5.674-12.827 0-21.46-3.454-27.258-9.867l-11.347 9.374c7.523 9.374 20.35 14.184 37.495 14.184Zm49.854-49.584V88.46c0 15.294 8.633 23.065 27.135 23.065 5.674 0 10.114-.617 14.308-1.85V93.64l-.355.078c-2.154.466-4.768.909-8.156.909-7.77 0-11.594-3.454-11.594-10.731V62.434h20.228V48.497h-20.228V25.925l-21.338 7.894v14.678h-13.815v13.937h13.815Zm72.2-13.937h-19.488v61.67h21.338V87.104c0-6.66 1.48-12.704 5.552-16.528 3.207-2.96 7.77-4.563 14.183-4.563 2.344 0 4.194.246 6.29.493V47.14c-1.355-.247-2.343-.247-4.069-.247-12.212 0-20.475 7.03-23.806 18.502V48.497Zm70.042 63.52c22.573 0 38.484-11.963 38.484-32.808 0-20.721-15.911-32.562-38.484-32.562-22.694 0-38.605 11.84-38.605 32.562 0 20.845 15.91 32.809 38.605 32.809Zm0-14.183c-10.36 0-16.897-6.66-16.897-18.625 0-11.964 6.537-18.378 16.897-18.378 10.238 0 16.776 6.414 16.776 18.378s-6.538 18.625-16.776 18.625Z" style="fill:rgba(50,10,58,.714)"/>
</g>
</svg>