<svg viewBox="0 -100 1900 900">
<path fill="none" d="M0 0h1600v800H0z"/>
<g style="transform-origin:12.0003px 11.9999px">
<path d="M14.448 16.24a21.883 21.883 0 0 1-1.747 2.175c1.673 1.623 3.228 2.383 4.091 1.884.863-.498.982-2.225.413-4.484-.853.19-1.779.334-2.757.424Zm-1.31.087a27.48 27.48 0 0 1-2.275 0c.376.492.758.948 1.137 1.363.38-.415.761-.871 1.138-1.364Zm5.04-7.894c2.665.764 4.406 2.034 4.406 3.567 0 1.533-1.74 2.803-4.405 3.567.67 2.69.44 4.832-.887 5.598-1.327.767-3.297-.105-5.292-2.031-1.994 1.925-3.964 2.798-5.291 2.031-1.328-.766-1.557-2.908-.887-5.598-2.665-.764-4.405-2.034-4.405-3.567 0-1.533 1.74-2.803 4.405-3.567-.67-2.69-.44-4.832.887-5.599 1.327-.766 3.297.106 5.291 2.032 1.995-1.926 3.965-2.798 5.292-2.032 1.327.767 1.557 2.909.887 5.599Zm-.973-.248c.57-2.26.45-3.986-.413-4.485-.863-.498-2.418.262-4.09 1.885.591.643 1.179 1.373 1.746 2.175.978.09 1.904.234 2.757.425Zm-10.41 7.63c-.569 2.26-.45 3.986.414 4.484.863.498 2.418-.261 4.09-1.884a21.866 21.866 0 0 1-1.746-2.176 21.883 21.883 0 0 1-2.757-.425Zm4.068-8.142a27.507 27.507 0 0 1 2.275 0A20.537 20.537 0 0 0 12 6.31c-.38.416-.76.872-1.137 1.364Zm-1.31.087a21.865 21.865 0 0 1 1.746-2.175C9.627 3.962 8.072 3.202 7.21 3.7c-.863.499-.983 2.226-.413 4.485.853-.19 1.779-.334 2.757-.425Zm4.34 7.52A25.373 25.373 0 0 0 15.788 12a25.363 25.363 0 0 0-1.893-3.28 25.37 25.37 0 0 0-3.787 0A25.368 25.368 0 0 0 8.213 12a25.39 25.39 0 0 0 1.894 3.28 25.398 25.398 0 0 0 3.787 0Zm1.285-.132c.615-.08 1.2-.182 1.75-.303a20.512 20.512 0 0 0-.612-1.667 27.546 27.546 0 0 1-1.137 1.97ZM8.822 8.851c-.615.08-1.2.183-1.75.304.17.536.375 1.094.613 1.667a27.518 27.518 0 0 1 1.137-1.97Zm-1.75 5.994c.55.121 1.135.223 1.75.303a27.528 27.528 0 0 1-1.137-1.97 20.51 20.51 0 0 0-.613 1.667Zm-.978-.245c.262-.834.6-1.708 1.01-2.6a21.88 21.88 0 0 1-1.01-2.6c-2.241.636-3.677 1.604-3.677 2.6s1.436 1.963 3.677 2.6ZM16.93 9.155c-.55-.121-1.136-.224-1.75-.304a27.541 27.541 0 0 1 1.137 1.97c.238-.572.442-1.13.613-1.666Zm.977.245c-.26.834-.6 1.708-1.01 2.6.41.892.75 1.766 1.01 2.6 2.242-.637 3.678-1.604 3.678-2.6s-1.436-1.963-3.678-2.6ZM12 13.879a1.88 1.88 0 1 1 0-3.758 1.88 1.88 0 0 1 0 3.758Z" style="fill:rgba(212,212,216,.463)" transform="matrix(3.08776 .43396 -.40753 2.89972 868.553 19.973)"/>
</g>
<g>
<path d="M2.5 5a.5.5 0 0 0 0 1H8a.5.5 0 0 0 0-1H2.5Zm3 3a.5.5 0 0 0 0 1h5a.5.5 0 0 0 0-1h-5ZM4 11.5a.5.5 0 0 1 .5-.5h9.444l-1 1H4.5a.5.5 0 0 1-.5-.5Zm6.274 3.17.67-.67H2.5a.5.5 0 0 0 0 1h7.486c.088-.116.184-.226.288-.33ZM12.5 8.5A.5.5 0 0 1 13 8h3.5a.5.5 0 0 1 0 1H13a.5.5 0 0 1-.5-.5Zm-2-3.5a.5.5 0 0 0 0 1H17a.5.5 0 0 0 0-1h-6.5Zm.48 10.377 4.83-4.83a1.87 1.87 0 1 1 2.644 2.646l-4.83 4.829a2.197 2.197 0 0 1-1.02.578l-1.498.374a.89.89 0 0 1-1.079-1.078l.375-1.498c.096-.386.296-.74.578-1.02Z" style="fill:rgba(161,161,170,.404)" transform="matrix(3.16778 0 0 2.94088 1593.665 444.118)"/>
</g>
<g>
<path d="M19 6.41 17.59 5 12 10.59 6.41 5 5 6.41 10.59 12 5 17.59 6.41 19 12 13.41 17.59 19 19 17.59 13.41 12z" style="fill:rgba(161,161,170,.227)" transform="matrix(1.46185 0 0 1.35714 572.225 693.214)"/>
</g>
<g style="transform-origin:12px 12px">
<path d="M19 6.41 17.59 5 12 10.59 6.41 5 5 6.41 10.59 12 5 17.59 6.41 19 12 13.41 17.59 19 19 17.59 13.41 12z" style="fill:rgba(161,161,170,.192)" transform="matrix(1.3554 -.5084 .54762 1.25832 522.986 11.369)"/>
</g>
<g>
<path d="M19 6.41 17.59 5 12 10.59 6.41 5 5 6.41 10.59 12 5 17.59 6.41 19 12 13.41 17.59 19 19 17.59 13.41 12z" style="fill:rgba(161,161,170,.086)" transform="matrix(1.46185 0 0 1.35714 1543.42 374.214)"/>
</g>
<g style="transform-origin:12px 12px">
<path d="M19 6.41 17.59 5 12 10.59 6.41 5 5 6.41 10.59 12 5 17.59 6.41 19 12 13.41 17.59 19 19 17.59 13.41 12z" style="fill:rgba(161,161,170,.27)" transform="matrix(.32884 1.32236 -1.42438 .3053 1266.8 13.894)"/>
</g>
<g transform="matrix(.54097 0 0 .50223 244.512 513.105)" style="transform-origin:204.062px 66.278px">
<path d="M54.301 34.795h17.426v-8.549H26.85v8.549h17.384v52.136h10.067V34.795Zm33.49 59.075 19.633-50.285H97.48L86.601 75.161c-.258.968-.461 1.756-.607 2.364l-.158.683h-.213c-.226-.967-.407-1.723-.541-2.266l-.224-.866-10.369-31.491H63.568l17.296 43.258-2.932 7.112c-1.814 3.611-4.562 5.417-8.245 5.417-1.275 0-2.692-.254-4.249-.762v8.17c1.388.366 3.116.55 5.184.55 7.366 0 13.089-4.487 17.169-13.46Zm50.546-51.305c5.519 0 9.821 1.932 12.906 5.795 3.085 3.863 4.627 9.052 4.627 15.567 0 7.219-1.74 13-5.222 17.343-3.481 4.343-8.236 6.515-14.264 6.515-5.548 0-9.821-2.426-12.821-7.276h-.17v26.311h-9.849V43.58h9.849v7.614h.17c3.368-5.753 8.292-8.629 14.774-8.629Zm-3.44 8.159c-3.506 0-6.327 1.234-8.462 3.702-2.135 2.469-3.202 5.554-3.202 9.257v5.343c0 3.142 1.011 5.807 3.033 7.994 2.022 2.188 4.588 3.282 7.698 3.282 3.648 0 6.511-1.41 8.59-4.229 2.078-2.818 3.117-6.752 3.117-11.801 0-4.235-.968-7.552-2.906-9.951-1.936-2.398-4.559-3.597-7.868-3.597Zm46.822-8.159c5.892 0 10.451 1.905 13.678 5.715 3.226 3.811 4.84 9.103 4.84 15.877v3.768H170.86c.113 4.008 1.34 7.099 3.683 9.272 2.343 2.174 5.562 3.26 9.659 3.26 4.602 0 8.824-1.383 12.668-4.149v7.918c-3.928 2.484-9.119 3.725-15.572 3.725-6.341 0-11.315-1.969-14.92-5.906-3.605-3.937-5.408-9.477-5.408-16.618 0-6.745 1.985-12.242 5.955-16.49 3.97-4.248 8.902-6.372 14.794-6.372Zm42.358-17.339c3.627 0 7.253.606 10.879 1.819v4.399c-3.569-1.608-7.38-2.411-11.431-2.411-4.136 0-7.416 1.043-9.838 3.13-2.422 2.086-3.633 4.737-3.633 7.951 0 3.102.828 5.569 2.486 7.402 1.657 1.833 5.234 4.329 10.73 7.487 5.694 3.214 9.484 6.069 11.368 8.565 1.884 2.495 2.826 5.364 2.826 8.607 0 4.653-1.622 8.445-4.866 11.377-3.244 2.933-7.826 4.399-13.748 4.399-2.096 0-4.511-.324-7.245-.973-2.734-.648-4.824-1.395-6.269-2.241v-4.78c4.364 2.764 8.783 4.145 13.259 4.145 4.76 0 8.372-.98 10.837-2.939 2.465-1.96 3.697-4.702 3.697-8.227 0-3.102-.828-5.576-2.486-7.423-1.598-1.781-4.994-4.184-10.188-7.211l-.585-.338c-6.176-3.582-10.086-6.578-11.729-8.988-1.643-2.412-2.464-5.196-2.464-8.354 0-4.286 1.671-7.923 5.014-10.912 3.343-2.989 7.805-4.484 13.386-4.484Zm-42.208 24.478c-2.798 0-5.168 1.034-7.112 3.102-1.944 2.069-3.14 4.774-3.588 8.117h19.889c-.028-3.541-.854-6.296-2.476-8.265-1.622-1.969-3.86-2.954-6.713-2.954Zm80.536 38.247c4.494 0 8.362-.986 11.605-2.958v-4.057c-3.243 2.31-7.054 3.465-11.435 3.465-4.779 0-8.626-1.704-11.542-5.113-2.915-3.409-4.373-7.917-4.373-13.523 0-5.803 1.593-10.529 4.779-14.178 3.186-3.648 7.339-5.472 12.459-5.472 3.727 0 7.154.957 10.283 2.873v-4.395c-3.129-1.352-6.358-2.028-9.686-2.028-6.429 0-11.691 2.19-15.787 6.571s-6.144 10.009-6.144 16.883c0 6.536 1.82 11.825 5.461 15.868 3.641 4.043 8.434 6.064 14.38 6.064Zm37.274-40.456c-1.295-.936-2.815-1.403-4.561-1.403-3.407 0-6.264 1.771-8.573 5.312-2.309 3.542-3.464 8.57-3.464 15.087v20.44h-3.8V43.415h3.8v9.646h.17c.985-3.314 2.547-5.892 4.687-7.734 2.14-1.841 4.618-2.762 7.433-2.762 1.605 0 3.041.255 4.308.765v4.165Zm10.199-3.91v43.346h-4.079V43.585h4.079Zm-1.827-17.339c.889 0 1.671.291 2.345.872.675.582 1.012 1.367 1.012 2.356 0 .93-.33 1.73-.99 2.398-.66.669-1.449 1.004-2.367 1.004-.862 0-1.622-.32-2.282-.96-.66-.64-.99-1.454-.99-2.442 0-.96.337-1.738 1.011-2.334.675-.596 1.428-.894 2.261-.894Zm31.248 16.319c5.494 0 9.783 1.895 12.868 5.685 3.085 3.791 4.628 8.942 4.628 15.451 0 7.243-1.768 13.098-5.304 17.565-3.536 4.466-8.205 6.7-14.009 6.7-6.479 0-11.269-2.917-14.368-8.75h-.168v27.604h-3.888V43.621h3.888v8.92h.168c1.55-3.185 3.768-5.643 6.656-7.376 2.888-1.734 6.064-2.6 9.529-2.6Zm-.158 3.57c-5.093 0-9.033 1.688-11.822 5.065-2.788 3.377-4.182 7.346-4.182 11.905v5.446c0 4.334 1.38 8.056 4.14 11.166 2.76 3.11 6.387 4.665 10.883 4.665 4.467 0 8.094-1.893 10.883-5.678 2.788-3.786 4.182-8.76 4.182-14.923 0-5.404-1.281-9.696-3.841-12.876-2.561-3.18-5.975-4.77-10.243-4.77Zm36.458 41.816c1.765 0 3.656-.478 5.674-1.435v-3.63c-1.849 1.041-3.573 1.562-5.17 1.562-2.242 0-3.832-.669-4.77-2.005-.939-1.337-1.408-3.497-1.408-6.48V47.428h11.348v-3.545h-11.348V31.346a31.35 31.35 0 0 1-1.934.633c-.672.225-1.316.45-1.933.675v11.229h-7.733v3.545h7.733V76.47c0 7.654 3.18 11.481 9.541 11.481Z" style="paint-order:stroke;fill:rgba(212,212,216,.514)"/>
</g>
<g fill="none" style="transform-origin:255.884px 156.547px">
<path d="M253.11 313.094c-1.733 0-3.351-.462-4.854-1.271l-15.371-9.13c-2.312-1.272-1.156-1.734-.462-1.965 3.12-1.04 3.698-1.272 6.934-3.12.347-.232.81-.116 1.156.115l11.789 7.05c.462.231 1.04.231 1.386 0l46.115-26.698c.462-.231.694-.694.694-1.271v-53.28c0-.579-.232-1.04-.694-1.272l-46.115-26.582c-.462-.232-1.04-.232-1.386 0l-46.115 26.582c-.462.231-.694.809-.694 1.271v53.28c0 .463.232 1.04.694 1.272l12.598 7.281c6.819 3.467 11.095-.578 11.095-4.623v-52.587c0-.693.578-1.387 1.387-1.387h5.894c.694 0 1.387.578 1.387 1.387v52.587c0 9.13-4.97 14.447-13.638 14.447-2.658 0-4.738 0-10.633-2.89l-12.135-6.934c-3.005-1.733-4.854-4.97-4.854-8.437v-53.28c0-3.467 1.849-6.704 4.854-8.437l46.114-26.698c2.89-1.618 6.82-1.618 9.709 0l46.114 26.698c3.005 1.733 4.855 4.97 4.855 8.437v53.28c0 3.467-1.85 6.704-4.855 8.437l-46.114 26.698c-1.503.694-3.236 1.04-4.854 1.04Zm14.216-36.637c-20.225 0-24.386-9.246-24.386-17.105 0-.694.578-1.387 1.387-1.387h6.01c.693 0 1.271.462 1.271 1.156.925 6.125 3.583 9.13 15.834 9.13 9.708 0 13.87-2.196 13.87-7.397 0-3.005-1.157-5.2-16.297-6.703-12.598-1.272-20.457-4.045-20.457-14.1 0-9.362 7.86-14.91 21.035-14.91 14.793 0 22.075 5.086 23 16.18 0 .348-.116.694-.347 1.041-.232.231-.578.462-.925.462h-6.01c-.578 0-1.156-.462-1.271-1.04-1.387-6.356-4.97-8.437-14.447-8.437-10.633 0-11.905 3.699-11.905 6.472 0 3.352 1.503 4.392 15.834 6.241 14.216 1.85 20.92 4.508 20.92 14.447-.116 10.171-8.437 15.95-23.116 15.95ZM110.028 104.712c0-2.08-1.156-4.046-3.005-5.086l-49.004-28.2c-.81-.463-1.734-.694-2.658-.81h-.463c-.924 0-1.849.347-2.658.81l-49.004 28.2c-1.85 1.04-3.005 3.005-3.005 5.086l.116 75.817c0 1.04.578 2.08 1.502 2.543.925.578 2.08.578 2.89 0l29.125-16.643c1.849-1.04 3.005-3.005 3.005-5.085v-35.482c0-2.08 1.155-4.045 3.005-5.085l12.366-7.166c.925-.578 1.965-.81 3.005-.81 1.04 0 2.08.232 2.89.81l12.366 7.166c1.85 1.04 3.005 3.004 3.005 5.085v35.482c0 2.08 1.156 4.045 3.005 5.085l29.125 16.643c.925.578 2.08.578 3.005 0 .925-.463 1.503-1.503 1.503-2.543l-.116-75.817ZM345.571.347c-.924-.463-2.08-.463-2.89 0-.924.578-1.502 1.502-1.502 2.542v75.125c0 .693-.346 1.386-1.04 1.849-.693.346-1.387.346-2.08 0l-12.251-7.05a5.957 5.957 0 0 0-5.895 0l-49.004 28.316c-1.849 1.04-3.005 3.005-3.005 5.085v56.516c0 2.08 1.156 4.046 3.005 5.086l49.004 28.316a5.957 5.957 0 0 0 5.895 0l49.004-28.316c1.849-1.04 3.005-3.005 3.005-5.086V21.844c0-2.196-1.156-4.16-3.005-5.201L345.572.347Zm-4.507 143.776c0 .578-.231 1.04-.694 1.271l-16.758 9.708a1.714 1.714 0 0 1-1.503 0l-16.758-9.708c-.463-.231-.694-.809-.694-1.271v-19.417c0-.578.231-1.04.694-1.271l16.758-9.709a1.714 1.714 0 0 1 1.503 0l16.758 9.709c.463.23.694.809.694 1.271v19.417Z" style="fill:rgba(212,212,216,.33)" transform="matrix(.1802 .08524 -.09182 .16729 1483.674 131.386)"/>
<path d="M107.6 53.743c1.85-1.04 2.89-3.005 2.89-5.086V34.904c0-2.08-1.155-4.045-2.89-5.085l-48.656-28.2a5.957 5.957 0 0 0-5.895 0L4.045 29.933c-1.85 1.04-3.005 3.005-3.005 5.085v56.517c0 2.08 1.156 4.045 3.005 5.085l48.657 27.738c1.85 1.04 4.046 1.04 5.78 0l29.471-16.411c.925-.463 1.503-1.503 1.503-2.543 0-1.04-.578-2.08-1.503-2.543L38.718 74.546c-.925-.578-1.503-1.502-1.503-2.542V54.32c0-1.04.578-2.08 1.503-2.543l15.371-8.784a2.821 2.821 0 0 1 3.005 0l15.372 8.784c.925.578 1.502 1.502 1.502 2.543V68.19c0 1.04.578 2.08 1.503 2.542.924.578 2.08.578 3.005 0l29.125-16.99Z" style="fill:rgba(212,212,216,.33)" transform="matrix(.1802 .08524 -.09182 .16729 1549.468 177.365)"/>
<path d="M55.245 51.084a1.05 1.05 0 0 1 1.156 0l9.362 5.432c.346.232.577.578.577 1.04v10.865c0 .462-.23.809-.577 1.04L56.4 74.893a1.05 1.05 0 0 1-1.156 0l-9.361-5.432c-.347-.231-.578-.578-.578-1.04V57.557c0-.463.23-.81.578-1.04l9.361-5.433Z" style="fill:rgba(212,212,216,.33)" transform="matrix(.1802 .08524 -.09182 .16729 1549.468 177.365)"/>
<g transform="matrix(.1802 .08524 -.09182 .16729 1501.36 154.608)">
<mask id="a" fill="#fff">
<path d="M57.903 1.85a5.957 5.957 0 0 0-5.894 0L3.352 29.933c-1.85 1.04-2.89 3.005-2.89 5.085v56.286c0 2.08 1.156 4.045 2.89 5.085l48.657 28.085a5.957 5.957 0 0 0 5.894 0l48.658-28.085c1.849-1.04 2.89-3.005 2.89-5.085V35.019c0-2.08-1.157-4.045-2.89-5.085L57.903 1.85Z"/>
</mask>
<path d="M57.903 1.85a5.957 5.957 0 0 0-5.894 0L3.352 29.933c-1.85 1.04-2.89 3.005-2.89 5.085v56.286c0 2.08 1.156 4.045 2.89 5.085l48.657 28.085a5.957 5.957 0 0 0 5.894 0l48.658-28.085c1.849-1.04 2.89-3.005 2.89-5.085V35.019c0-2.08-1.157-4.045-2.89-5.085L57.903 1.85Z" style="fill:rgba(212,212,216,.33)"/>
<g mask="url(#a)">
<path d="M51.893 1.85 3.121 29.933C1.27 30.974 0 32.94 0 35.02v56.286c0 1.387.578 2.658 1.502 3.698L56.285 1.156c-1.387-.231-3.005-.116-4.392.693ZM56.632 125.053c.462-.116.925-.347 1.387-.578l48.773-28.085c1.85-1.04 3.005-3.005 3.005-5.085V35.019c0-1.502-.694-3.005-1.734-4.045l-51.43 94.079ZM106.676 29.934 57.788 1.85a8.025 8.025 0 0 0-1.503-.578L1.502 95.12a6.082 6.082 0 0 0 1.619 1.387l48.888 28.085c1.387.809 3.005 1.04 4.507.577l51.432-94.078c-.347-.462-.81-.81-1.272-1.156Z" style="fill:rgba(212,212,216,.33)"/>
</g>
<g mask="url(#a)">
<path d="M109.797 100.55V44.266c0-2.08-1.271-4.045-3.12-5.085l-48.89-28.085a5.106 5.106 0 0 0-1.848-.693l53.511 91.42c.231-.347.347-.809.347-1.271ZM3.12 39.18C1.272 40.22 0 42.185 0 44.265v56.286c0 2.08 1.387 4.045 3.12 5.085l48.889 28.085c1.156.693 2.427.925 3.814.693L3.467 39.064l-.346.116Z" style="fill:rgba(212,212,216,.33)" transform="translate(0 -9.246)"/>
<path fill-rule="evenodd" d="m50.391.809-.693.347h.924l-.231-.347ZM106.792 105.636c1.387-.809 2.427-2.196 2.89-3.698L56.053 10.402c-1.387-.231-2.89-.116-4.16.693L3.351 39.065l52.355 95.465a8.057 8.057 0 0 0 2.196-.693l48.889-28.2ZM111.3 104.712l-.347-.578v.809l.346-.231Z" style="fill:rgba(212,212,216,.33)" transform="translate(0 -9.246)"/>
<path d="m106.792 105.636-48.773 28.085a6.973 6.973 0 0 1-2.196.693l.925 1.734 54.089-31.32v-.694l-1.387-2.312c-.231 1.618-1.271 3.005-2.658 3.814Z" fill-rule="evenodd" style="fill:rgba(212,212,216,.33)" transform="translate(0 -9.246)"/>
<path d="m106.792 105.636-48.773 28.085a6.973 6.973 0 0 1-2.196.693l.925 1.734 54.089-31.32v-.694l-1.387-2.312c-.231 1.618-1.271 3.005-2.658 3.814Z" fill-rule="evenodd" style="fill:rgba(212,212,216,.33)" transform="translate(0 -9.246)"/>
</g>
</g>
</g>
<g>
<path d="M6.25 3A3.25 3.25 0 0 0 3 6.25v11.5A3.25 3.25 0 0 0 6.25 21h11.5A3.25 3.25 0 0 0 21 17.75V6.25A3.25 3.25 0 0 0 17.75 3H6.25ZM4.5 6.25c0-.966.784-1.75 1.75-1.75h11.5c.966 0 1.75.784 1.75 1.75v11.5a1.75 1.75 0 0 1-1.75 1.75H6.25a1.75 1.75 0 0 1-1.75-1.75V6.25Zm6.03 3.03a.75.75 0 1 0-1.06-1.06l-3.25 3.25a.75.75 0 0 0 0 1.06l3.25 3.25a.75.75 0 1 0 1.06-1.06L7.81 12l2.72-2.72Zm4-1.06a.75.75 0 1 0-1.06 1.06L16.19 12l-2.72 2.72a.75.75 0 1 0 1.06 1.06l3.25-3.25a.75.75 0 0 0 0-1.06l-3.25-3.25Z" style="fill:rgba(212,212,216,.39)" transform="matrix(4.7275 0 0 4.38889 1300.722 633.729)"/>
</g>
<path d="M72.392 55.438c0 3.137.34 5.68.933 7.545a45.373 45.373 0 0 0 2.712 6.103c.424.678.593 1.356.593 1.95 0 .847-.508 1.695-1.61 2.543l-5.34 3.56c-.763.509-1.526.763-2.205.763-.847 0-1.695-.424-2.543-1.187a26.224 26.224 0 0 1-3.051-3.984c-.848-1.44-1.696-3.052-2.628-5.001-6.612 7.798-14.92 11.698-24.922 11.698-7.12 0-12.8-2.035-16.954-6.103-4.153-4.07-6.272-9.495-6.272-16.276 0-7.205 2.543-13.054 7.714-17.462 5.17-4.408 12.037-6.612 20.768-6.612 2.882 0 5.849.254 8.985.678 3.137.424 6.358 1.102 9.749 1.865V29.33c0-6.443-1.357-10.935-3.985-13.563-2.712-2.628-7.29-3.9-13.817-3.9-2.967 0-6.018.34-9.155 1.103-3.136.762-6.188 1.695-9.155 2.882-1.356.593-2.373.932-2.967 1.102-.593.17-1.017.254-1.356.254-1.187 0-1.78-.848-1.78-2.628v-4.154c0-1.356.17-2.373.593-2.966.424-.594 1.187-1.187 2.374-1.78 2.967-1.526 6.527-2.798 10.68-3.815C33.908.763 38.316.255 42.978.255c10.088 0 17.463 2.288 22.21 6.866 4.662 4.577 7.036 11.528 7.036 20.853v27.464h.17ZM37.976 68.323c2.798 0 5.68-.508 8.731-1.526 3.052-1.017 5.765-2.882 8.053-5.425 1.357-1.61 2.374-3.39 2.882-5.425.509-2.034.848-4.493.848-7.375v-3.56a70.791 70.791 0 0 0-7.799-1.441 63.874 63.874 0 0 0-7.968-.509c-5.68 0-9.833 1.102-12.63 3.391-2.798 2.289-4.154 5.51-4.154 9.748 0 3.984 1.017 6.951 3.136 8.986 2.035 2.119 5.002 3.136 8.901 3.136Zm68.069 9.155c-1.526 0-2.543-.254-3.221-.848-.678-.508-1.272-1.695-1.78-3.305L81.124 7.799c-.51-1.696-.764-2.798-.764-3.391 0-1.356.678-2.12 2.035-2.12h8.307c1.61 0 2.713.255 3.306.848.678.509 1.187 1.696 1.695 3.306l14.241 56.117 13.224-56.117c.424-1.695.933-2.797 1.61-3.306.679-.508 1.866-.847 3.392-.847h6.781c1.61 0 2.713.254 3.39.847.679.509 1.272 1.696 1.611 3.306l13.394 56.795L168.01 6.442c.508-1.695 1.102-2.797 1.695-3.306.678-.508 1.78-.847 3.306-.847h7.883c1.357 0 2.12.678 2.12 2.119 0 .424-.085.848-.17 1.356-.085.509-.254 1.187-.593 2.12l-20.43 65.525c-.508 1.696-1.101 2.798-1.78 3.306-.678.509-1.78.848-3.22.848h-7.29c-1.611 0-2.713-.254-3.392-.848-.678-.593-1.271-1.695-1.61-3.39l-13.14-54.676-13.054 54.59c-.423 1.696-.932 2.798-1.61 3.391-.678.594-1.865.848-3.39.848h-7.291Zm108.927 2.289c-4.408 0-8.816-.509-13.054-1.526-4.239-1.017-7.544-2.12-9.748-3.39-1.357-.764-2.29-1.611-2.628-2.374a5.983 5.983 0 0 1-.509-2.374V65.78c0-1.78.678-2.628 1.95-2.628a4.8 4.8 0 0 1 1.526.255c.508.17 1.271.508 2.119.847a46.108 46.108 0 0 0 9.324 2.967 50.907 50.907 0 0 0 10.088 1.017c5.34 0 9.494-.932 12.376-2.797 2.882-1.865 4.408-4.577 4.408-8.053 0-2.373-.763-4.323-2.289-5.934-1.526-1.61-4.408-3.051-8.561-4.408l-12.292-3.814c-6.188-1.95-10.765-4.832-13.563-8.647-2.797-3.73-4.238-7.883-4.238-12.291 0-3.56.763-6.697 2.289-9.41 1.525-2.712 3.56-5.085 6.103-6.95 2.543-1.95 5.425-3.391 8.816-4.408 3.39-1.017 6.95-1.441 10.68-1.441 1.865 0 3.815.085 5.68.339 1.95.254 3.73.593 5.51.932 1.695.424 3.306.848 4.832 1.357 1.526.508 2.712 1.017 3.56 1.525 1.187.679 2.034 1.357 2.543 2.12.509.678.763 1.61.763 2.797v3.984c0 1.78-.678 2.713-1.95 2.713-.678 0-1.78-.34-3.22-1.018-4.833-2.204-10.258-3.306-16.276-3.306-4.832 0-8.647.763-11.275 2.374-2.627 1.61-3.984 4.069-3.984 7.544 0 2.374.848 4.408 2.543 6.019 1.696 1.61 4.832 3.221 9.325 4.662l12.037 3.815c6.103 1.95 10.511 4.662 13.139 8.137 2.628 3.476 3.9 7.46 3.9 11.868 0 3.645-.764 6.951-2.205 9.833-1.525 2.882-3.56 5.425-6.188 7.46-2.628 2.119-5.764 3.645-9.409 4.747-3.815 1.187-7.799 1.78-12.122 1.78ZM230.993 120.964c-27.888 20.599-68.408 31.534-103.247 31.534-48.827 0-92.821-18.056-126.05-48.064-2.628-2.373-.255-5.594 2.881-3.73 35.942 20.854 80.276 33.484 126.136 33.484 30.94 0 64.932-6.442 96.212-19.666 4.662-2.12 8.646 3.052 4.068 6.442Zm11.614-13.224c-3.56-4.577-23.566-2.204-32.636-1.102-2.713.34-3.137-2.034-.678-3.814 15.936-11.19 42.13-7.968 45.181-4.239 3.052 3.815-.848 30.008-15.767 42.554-2.288 1.95-4.492.933-3.475-1.61 3.39-8.393 10.935-27.296 7.375-31.789Z" style="fill:rgba(212,212,216,.392)" transform="translate(285.853 231.807) scale(.25895)"/>
</svg>