<svg preserveAspectRatio="none" viewBox="0 0 1440 560">
      <g mask='url("#SvgjsMask1040")' fill="none">
        <path
          d="M1488 560L0 560 L0 373.65Q33.08 286.73, 120 319.81Q194.51 274.32, 240 348.84Q313.65 302.49, 360 376.13Q412.14 308.27, 480 360.42Q500.94 309.37, 552 330.31Q567.6 273.9, 624 289.5Q672.48 265.98, 696 314.46Q764.88 263.35, 816 332.23Q895.92 292.15, 936 372.08Q957.24 273.32, 1056 294.56Q1133.41 251.98, 1176 329.39Q1226.44 259.83, 1296 310.28Q1381.04 275.32, 1416 360.36Q1435.61 307.97, 1488 327.57z"
          fill="rgba(213, 255, 228, 1)"
        ></path>
        <path
          d="M1488 560L0 560 L0 401.05Q11.44 340.49, 72 351.92Q117.45 325.37, 144 370.82Q235.79 342.61, 264 434.4Q310 360.4, 384 406.4Q426.4 376.8, 456 419.21Q478.92 370.13, 528 393.05Q547.43 340.48, 600 359.91Q687.37 327.28, 720 414.65Q770.13 344.78, 840 394.91Q891.51 374.42, 912 425.93Q950.93 344.86, 1032 383.79Q1084.54 316.33, 1152 368.86Q1181.01 325.88, 1224 354.89Q1272.81 331.7, 1296 380.51Q1340.26 352.76, 1368 397.02Q1410.07 319.08, 1488 361.15z"
          fill="rgba(139, 232, 229, 1)"
        ></path>
        <path
          d="M1512 560L0 560 L0 490.57Q40.18 410.75, 120 450.93Q140.8 399.73, 192 420.52Q236.96 393.48, 264 438.44Q314.96 417.4, 336 468.36Q418.56 430.93, 456 513.49Q462.92 448.41, 528 455.34Q572.23 379.57, 648 423.8Q689.61 393.4, 720 435.01Q785.03 380.04, 840 445.07Q904.35 437.42, 912 501.77Q938.21 455.98, 984 482.19Q1011.57 437.75, 1056 465.32Q1085.05 422.37, 1128 451.42Q1180 431.42, 1200 483.42Q1234.68 398.1, 1320 432.78Q1363.83 404.61, 1392 448.43Q1459.8 396.23, 1512 464.02z"
          fill="rgba(160, 132, 232, 1)"
        ></path>
        <path
          d="M1512 560L0 560 L0 558.14Q49.28 535.42, 72 584.7Q76.76 517.47, 144 522.23Q209.09 467.32, 264 532.41Q317.93 514.34, 336 568.26Q386.37 498.63, 456 549Q496 469, 576 508.99Q649.44 462.43, 696 535.88Q776.49 496.37, 816 576.86Q881.19 522.05, 936 587.23Q955.57 486.8, 1056 506.36Q1086.23 464.59, 1128 494.81Q1175.28 470.09, 1200 517.36Q1263.59 508.95, 1272 572.54Q1319.3 499.84, 1392 547.13Q1429.28 464.4, 1512 501.68z"
          fill="rgba(111, 97, 192, 1)"
        ></path>
      </g>
      <defs>
        <mask id="SvgjsMask1040">
          <rect width="1440" height="560" fill="#ffffff"></rect>
        </mask>
      </defs>
    </svg>