<svg xmlns:bx="https://boxy-svg.com" viewBox="0 -100 1900 900">
<path fill="none" d="M0 0h1600v800H0z"/>
<g style="transform-origin:12.0003px 11.9999px">
<path d="M14.448 16.24a21.883 21.883 0 0 1-1.747 2.175c1.673 1.623 3.228 2.383 4.091 1.884.863-.498.982-2.225.413-4.484-.853.19-1.779.334-2.757.424Zm-1.31.087a27.48 27.48 0 0 1-2.275 0c.376.492.758.948 1.137 1.363.38-.415.761-.871 1.138-1.364Zm5.04-7.894c2.665.764 4.406 2.034 4.406 3.567 0 1.533-1.74 2.803-4.405 3.567.67 2.69.44 4.832-.887 5.598-1.327.767-3.297-.105-5.292-2.031-1.994 1.925-3.964 2.798-5.291 2.031-1.328-.766-1.557-2.908-.887-5.598-2.665-.764-4.405-2.034-4.405-3.567 0-1.533 1.74-2.803 4.405-3.567-.67-2.69-.44-4.832.887-5.599 1.327-.766 3.297.106 5.291 2.032 1.995-1.926 3.965-2.798 5.292-2.032 1.327.767 1.557 2.909.887 5.599Zm-.973-.248c.57-2.26.45-3.986-.413-4.485-.863-.498-2.418.262-4.09 1.885a21.932 21.932 0 0 1 1.746 2.175c.978.09 1.904.234 2.757.425Zm-10.41 7.63c-.569 2.26-.45 3.986.414 4.484.863.498 2.418-.261 4.09-1.884a21.866 21.866 0 0 1-1.746-2.176 21.883 21.883 0 0 1-2.757-.425Zm4.068-8.142a27.507 27.507 0 0 1 2.275 0A20.537 20.537 0 0 0 12 6.31c-.38.416-.76.872-1.137 1.364Zm-1.31.087a21.865 21.865 0 0 1 1.746-2.175C9.627 3.962 8.072 3.202 7.21 3.7c-.863.499-.983 2.226-.413 4.485.853-.19 1.779-.334 2.757-.425Zm4.34 7.52A25.373 25.373 0 0 0 15.788 12a25.363 25.363 0 0 0-1.893-3.28 25.37 25.37 0 0 0-3.787 0A25.368 25.368 0 0 0 8.213 12a25.39 25.39 0 0 0 1.894 3.28 25.398 25.398 0 0 0 3.787 0Zm1.285-.132c.615-.08 1.2-.182 1.75-.303a20.512 20.512 0 0 0-.612-1.667 27.546 27.546 0 0 1-1.137 1.97ZM8.822 8.851c-.615.08-1.2.183-1.75.304.17.536.375 1.094.613 1.667a27.518 27.518 0 0 1 1.137-1.97Zm-1.75 5.994c.55.121 1.135.223 1.75.303a27.528 27.528 0 0 1-1.137-1.97 20.51 20.51 0 0 0-.613 1.667Zm-.978-.245c.262-.834.6-1.708 1.01-2.6a21.88 21.88 0 0 1-1.01-2.6c-2.241.636-3.677 1.604-3.677 2.6s1.436 1.963 3.677 2.6ZM16.93 9.155a20.479 20.479 0 0 0-1.75-.304 27.541 27.541 0 0 1 1.137 1.97c.238-.572.442-1.13.613-1.666Zm.977.245c-.26.834-.6 1.708-1.01 2.6.41.892.75 1.766 1.01 2.6 2.242-.637 3.678-1.604 3.678-2.6s-1.436-1.963-3.678-2.6ZM12 13.879a1.88 1.88 0 1 1 0-3.758 1.88 1.88 0 0 1 0 3.758Z" style="fill:rgba(152,152,152,.28)" transform="matrix(3.08776 .43396 -.40753 2.89972 868.553 19.973)"/>
</g>
<g style="transform-origin:204.062px 66.278px">
<path d="M54.301 34.795h17.426v-8.549H26.85v8.549h17.384v52.136h10.067V34.795Zm33.49 59.075 19.633-50.285H97.48L86.601 75.161c-.258.968-.461 1.756-.607 2.364l-.158.683h-.213c-.226-.967-.407-1.723-.541-2.266l-.224-.866-10.369-31.491H63.568l17.296 43.258-2.932 7.112c-1.814 3.611-4.562 5.417-8.245 5.417-1.275 0-2.692-.254-4.249-.762v8.17c1.388.366 3.116.55 5.184.55 7.366 0 13.089-4.487 17.169-13.46Zm50.546-51.305c5.519 0 9.821 1.932 12.906 5.795 3.085 3.863 4.627 9.052 4.627 15.567 0 7.219-1.74 13-5.222 17.343-3.481 4.343-8.236 6.515-14.264 6.515-5.548 0-9.821-2.426-12.821-7.276h-.17v26.311h-9.849V43.58h9.849v7.614h.17c3.368-5.753 8.292-8.629 14.774-8.629Zm-3.44 8.159c-3.506 0-6.327 1.234-8.462 3.702-2.135 2.469-3.202 5.554-3.202 9.257v5.343c0 3.142 1.011 5.807 3.033 7.994 2.022 2.188 4.588 3.282 7.698 3.282 3.648 0 6.511-1.41 8.59-4.229 2.078-2.818 3.117-6.752 3.117-11.801 0-4.235-.968-7.552-2.906-9.951-1.936-2.398-4.559-3.597-7.868-3.597Zm46.822-8.159c5.892 0 10.451 1.905 13.678 5.715 3.226 3.811 4.84 9.103 4.84 15.877v3.768H170.86c.113 4.008 1.34 7.099 3.683 9.272 2.343 2.174 5.562 3.26 9.659 3.26 4.602 0 8.824-1.383 12.668-4.149v7.918c-3.928 2.484-9.119 3.725-15.572 3.725-6.341 0-11.315-1.969-14.92-5.906-3.605-3.937-5.408-9.477-5.408-16.618 0-6.745 1.985-12.242 5.955-16.49 3.97-4.248 8.902-6.372 14.794-6.372Zm42.358-17.339c3.627 0 7.253.606 10.879 1.819v4.399c-3.569-1.608-7.38-2.411-11.431-2.411-4.136 0-7.416 1.043-9.838 3.13-2.422 2.086-3.633 4.737-3.633 7.951 0 3.102.828 5.569 2.486 7.402 1.657 1.833 5.234 4.329 10.73 7.487 5.694 3.214 9.484 6.069 11.368 8.565 1.884 2.495 2.826 5.364 2.826 8.607 0 4.653-1.622 8.445-4.866 11.377-3.244 2.933-7.826 4.399-13.748 4.399-2.096 0-4.511-.324-7.245-.973-2.734-.648-4.824-1.395-6.269-2.241v-4.78c4.364 2.764 8.783 4.145 13.259 4.145 4.76 0 8.372-.98 10.837-2.939 2.465-1.96 3.697-4.702 3.697-8.227 0-3.102-.828-5.576-2.486-7.423-1.598-1.781-4.994-4.184-10.188-7.211l-.585-.338c-6.176-3.582-10.086-6.578-11.729-8.988-1.643-2.412-2.464-5.196-2.464-8.354 0-4.286 1.671-7.923 5.014-10.912 3.343-2.989 7.805-4.484 13.386-4.484Zm-42.208 24.478c-2.798 0-5.168 1.034-7.112 3.102-1.944 2.069-3.14 4.774-3.588 8.117h19.889c-.028-3.541-.854-6.296-2.476-8.265-1.622-1.969-3.86-2.954-6.713-2.954Zm80.536 38.247c4.494 0 8.362-.986 11.605-2.958v-4.057c-3.243 2.31-7.054 3.465-11.435 3.465-4.779 0-8.626-1.704-11.542-5.113-2.915-3.409-4.373-7.917-4.373-13.523 0-5.803 1.593-10.529 4.779-14.178 3.186-3.648 7.339-5.472 12.459-5.472 3.727 0 7.154.957 10.283 2.873v-4.395c-3.129-1.352-6.358-2.028-9.686-2.028-6.429 0-11.691 2.19-15.787 6.571s-6.144 10.009-6.144 16.883c0 6.536 1.82 11.825 5.461 15.868 3.641 4.043 8.434 6.064 14.38 6.064Zm37.274-40.456c-1.295-.936-2.815-1.403-4.561-1.403-3.407 0-6.264 1.771-8.573 5.312-2.309 3.542-3.464 8.57-3.464 15.087v20.44h-3.8V43.415h3.8v9.646h.17c.985-3.314 2.547-5.892 4.687-7.734 2.14-1.841 4.618-2.762 7.433-2.762 1.605 0 3.041.255 4.308.765v4.165Zm10.199-3.91v43.346h-4.079V43.585h4.079Zm-1.827-17.339c.889 0 1.671.291 2.345.872.675.582 1.012 1.367 1.012 2.356 0 .93-.33 1.73-.99 2.398-.66.669-1.449 1.004-2.367 1.004-.862 0-1.622-.32-2.282-.96-.66-.64-.99-1.454-.99-2.442 0-.96.337-1.738 1.011-2.334.675-.596 1.428-.894 2.261-.894Zm31.248 16.319c5.494 0 9.783 1.895 12.868 5.685 3.085 3.791 4.628 8.942 4.628 15.451 0 7.243-1.768 13.098-5.304 17.565-3.536 4.466-8.205 6.7-14.009 6.7-6.479 0-11.269-2.917-14.368-8.75h-.168v27.604h-3.888V43.621h3.888v8.92h.168c1.55-3.185 3.768-5.643 6.656-7.376 2.888-1.734 6.064-2.6 9.529-2.6Zm-.158 3.57c-5.093 0-9.033 1.688-11.822 5.065-2.788 3.377-4.182 7.346-4.182 11.905v5.446c0 4.334 1.38 8.056 4.14 11.166 2.76 3.11 6.387 4.665 10.883 4.665 4.467 0 8.094-1.893 10.883-5.678 2.788-3.786 4.182-8.76 4.182-14.923 0-5.404-1.281-9.696-3.841-12.876-2.561-3.18-5.975-4.77-10.243-4.77Zm36.458 41.816c1.765 0 3.656-.478 5.674-1.435v-3.63c-1.849 1.041-3.573 1.562-5.17 1.562-2.242 0-3.832-.669-4.77-2.005-.939-1.337-1.408-3.497-1.408-6.48V47.428h11.348v-3.545h-11.348V31.346a31.35 31.35 0 0 1-1.934.633c-.672.225-1.316.45-1.933.675v11.229h-7.733v3.545h7.733V76.47c0 7.654 3.18 11.481 9.541 11.481Z" style="paint-order:stroke;fill:rgba(152,152,152,.28)" transform="matrix(.60662 0 0 .56318 203.438 510.602)"/>
</g>
<path d="M222.826 169.155c0 .996.108 1.804.297 2.397.24.667.527 1.315.862 1.94.135.215.189.431.189.62 0 .269-.162.539-.512.807l-1.697 1.132c-.243.162-.485.243-.701.243-.269 0-.539-.135-.809-.378a8.432 8.432 0 0 1-.969-1.265 21.022 21.022 0 0 1-.835-1.59c-2.101 2.478-4.742 3.718-7.921 3.718-2.262 0-4.067-.647-5.388-1.941-1.319-1.292-1.993-3.016-1.993-5.171 0-2.291.808-4.15 2.451-5.55 1.643-1.4 3.826-2.101 6.6-2.101.917 0 1.86.081 2.856.215.997.135 2.02.351 3.098.592v-1.966c0-2.047-.431-3.475-1.265-4.31-.863-.836-2.317-1.24-4.392-1.24-.943 0-1.913.108-2.909.351-.997.242-1.967.538-2.91.916a7.812 7.812 0 0 1-.943.35 1.65 1.65 0 0 1-.431.081c-.378 0-.565-.27-.565-.836v-1.319c0-.431.054-.755.187-.943.135-.189.378-.378.755-.566.943-.484 2.074-.889 3.395-1.212 1.32-.35 2.721-.512 4.202-.512 3.207 0 5.55.727 7.059 2.182 1.482 1.454 2.236 3.664 2.236 6.627v8.729h.054-.001Zm-10.937 4.094c.889 0 1.805-.161 2.775-.485.969-.323 1.832-.915 2.558-1.724.432-.512.755-1.078.917-1.724a9.7 9.7 0 0 0 .269-2.343v-1.132a22.408 22.408 0 0 0-2.478-.458 20.634 20.634 0 0 0-2.533-.162c-1.804 0-3.125.35-4.013 1.078-.89.728-1.321 1.751-1.321 3.098 0 1.266.323 2.209.997 2.855.647.674 1.589.997 2.829.997Zm21.633 2.91c-.486 0-.809-.081-1.024-.27-.216-.161-.405-.539-.565-1.051l-6.332-20.823c-.162-.54-.243-.89-.243-1.079 0-.43.216-.673.647-.673h2.641c.511 0 .862.081 1.051.27.214.162.376.538.538 1.05l4.525 17.835 4.204-17.835c.134-.539.296-.888.51-1.05.216-.161.594-.269 1.079-.269h2.155c.512 0 .862.08 1.078.269.214.162.403.538.511 1.05l4.257 18.05 4.66-18.05c.162-.539.351-.888.538-1.05.216-.161.566-.269 1.051-.269h2.506c.431 0 .674.215.674.672 0 .135-.027.27-.054.432a3.86 3.86 0 0 1-.189.674l-6.492 20.823c-.162.539-.35.89-.566 1.051-.216.162-.566.27-1.024.27h-2.317c-.512 0-.861-.081-1.077-.27-.216-.188-.404-.539-.512-1.078l-4.177-17.375-4.148 17.348c-.134.539-.296.89-.512 1.078-.214.189-.592.27-1.077.27h-2.317.001Zm34.617.728c-1.401 0-2.802-.162-4.149-.486-1.347-.323-2.398-.673-3.097-1.077-.432-.243-.728-.513-.836-.754a1.928 1.928 0 0 1-.162-.755v-1.374c0-.565.216-.835.62-.835.165.001.329.028.485.081.162.054.405.162.673.27.951.418 1.946.734 2.964.942 1.054.214 2.13.323 3.206.323 1.697 0 3.017-.296 3.933-.889.916-.592 1.401-1.454 1.401-2.558 0-.755-.242-1.375-.728-1.887-.485-.512-1.4-.969-2.72-1.4l-3.907-1.213c-1.967-.619-3.421-1.535-4.311-2.747-.888-1.186-1.346-2.507-1.346-3.907 0-1.131.242-2.128.728-2.991a6.94 6.94 0 0 1 1.939-2.208c.809-.619 1.724-1.078 2.802-1.401 1.077-.323 2.209-.458 3.394-.458.592 0 1.212.027 1.805.108.619.081 1.185.188 1.751.296.539.135 1.05.27 1.535.432.486.161.863.323 1.132.483.378.216.647.432.809.674.162.216.241.512.241.89v1.265c0 .566-.214.863-.619.863-.215 0-.566-.108-1.023-.324-1.536-.7-3.261-1.051-5.173-1.051-1.535 0-2.748.243-3.583.755s-1.266 1.294-1.266 2.397c0 .755.269 1.402.808 1.913.539.512 1.535 1.024 2.964 1.482l3.825 1.212c1.939.62 3.341 1.482 4.175 2.586.836 1.105 1.24 2.371 1.24 3.772 0 1.158-.243 2.209-.701 3.125a7.227 7.227 0 0 1-1.966 2.37c-.836.674-1.832 1.159-2.991 1.51a12.811 12.811 0 0 1-3.852.566Zm5.092 13.092c-8.864 6.547-21.74 10.021-32.813 10.021-15.518 0-29.499-5.737-40.06-15.275-.834-.753-.081-1.777.916-1.185 11.423 6.627 25.513 10.642 40.087 10.642 9.833 0 20.636-2.048 30.576-6.251 1.483-.674 2.748.971 1.294 2.048Zm3.69-4.203c-1.131-1.454-7.489-.7-10.372-.35-.861.108-.996-.647-.214-1.212 5.063-3.556 13.388-2.532 14.358-1.347.97 1.212-.269 9.536-5.011 13.524-.727.619-1.428.297-1.104-.512 1.077-2.667 3.475-8.675 2.343-10.103Z" style="fill:rgba(152,152,152,.28)"/>
<g transform="translate(1453.25 435.677) scale(.42578)">
<bx:title>Next.js</bx:title>
<path d="M429.543.043v16.46h-35.377V103.1h-17.69V16.504h-36.114V.043h89.181Zm3.977 93.24c1.246 0 2.336.448 3.259 1.346.936.897 1.402 1.972 1.415 3.224-.013.85-.229 1.63-.66 2.327a4.776 4.776 0 0 1-1.714 1.665 4.422 4.422 0 0 1-2.3.626c-1.296 0-2.398-.449-3.32-1.346-.923-.898-1.38-1.985-1.368-3.272-.011-1.252.445-2.327 1.368-3.224.922-.898 2.024-1.346 3.32-1.346ZM82.916 103.1 17.69 22.028v81.03H0V0h22.111l82.406 102.329.001-85.825-.007-16.461h89.18v16.46h-71.484v26.48h57.488v16.461h-57.488V86.64h71.485v16.46H82.916Zm167.469-43.813L261.978 73.7l-23.755 29.522h-23.215l35.377-43.935ZM238.223.086l29.93 37.17L297.989.2l23.15-.035-41.396 51.485 41.463 51.493h-23.217L215.074.086h23.149Zm225.488 58.97h7.838v30.2c-.011 2.775-.612 5.148-1.785 7.145-1.187 1.995-2.83 3.519-4.938 4.594-2.098 1.062-4.555 1.606-7.348 1.606-2.553 0-4.841-.46-6.879-1.358-2.038-.898-3.655-2.244-4.842-4.016-1.2-1.771-1.787-3.98-1.787-6.625h7.852c.012 1.157.275 2.16.778 3a5.01 5.01 0 0 0 2.086 1.924c.898.45 1.93.674 3.091.674 1.26 0 2.338-.26 3.213-.792.874-.52 1.546-1.299 2.014-2.338.455-1.028.695-2.303.707-3.815v-30.2Zm40.09 11.81c-.19-1.83-1.03-3.26-2.492-4.275-1.475-1.028-3.38-1.535-5.718-1.535-1.64 0-3.055.248-4.23.732-1.174.496-2.085 1.157-2.709 1.996-.622.838-.934 1.795-.959 2.87 0 .897.216 1.677.635 2.326.42.662.983 1.217 1.714 1.666.72.46 1.522.838 2.398 1.145.886.307 1.774.567 2.66.78l4.087 1.004c1.643.378 3.237.885 4.759 1.535 1.521.638 2.9 1.453 4.11 2.433 1.211.98 2.17 2.161 2.877 3.543.707 1.382 1.067 3 1.067 4.866 0 2.515-.647 4.724-1.954 6.637-1.306 1.902-3.188 3.39-5.657 4.465-2.457 1.063-5.43 1.606-8.929 1.606-3.38 0-6.328-.52-8.81-1.559-2.492-1.027-4.434-2.54-5.837-4.524-1.402-1.984-2.157-4.405-2.265-7.251h7.768c.107 1.488.587 2.728 1.402 3.732.826.992 1.905 1.724 3.224 2.22 1.33.485 2.816.733 4.458.733 1.714 0 3.224-.26 4.53-.768 1.295-.508 2.313-1.216 3.045-2.138.743-.91 1.115-1.984 1.127-3.212-.012-1.122-.349-2.055-.996-2.788-.659-.732-1.57-1.346-2.733-1.842-1.173-.496-2.54-.945-4.098-1.334l-4.962-1.252c-3.584-.91-6.424-2.291-8.498-4.146-2.085-1.854-3.116-4.31-3.116-7.393 0-2.527.695-4.748 2.098-6.65 1.39-1.9 3.296-3.377 5.705-4.428 2.42-1.063 5.154-1.583 8.197-1.583 3.093 0 5.801.52 8.139 1.583 2.336 1.051 4.171 2.515 5.5 4.381 1.331 1.867 2.027 4.004 2.063 6.425h-7.6Z" style="fill:rgba(152,152,152,.28)"/>
</g>
<path d="m152.576 32.963 59.146 34.15a25.819 25.819 0 0 1 5.818-4.604c12.266-7.052 27.912-2.865 35.037 9.402 7.052 12.267 2.865 27.912-9.402 35.037a25.698 25.698 0 0 1-6.831 2.72v68.325a25.7 25.7 0 0 1 6.758 2.702c12.34 7.125 16.527 22.771 9.402 35.038-7.052 12.266-22.771 16.453-35.038 9.402a25.464 25.464 0 0 1-6.34-5.147l-58.786 33.94a25.671 25.671 0 0 1 1.295 8.08c0 14.103-11.458 25.636-25.635 25.636-14.177 0-25.635-11.46-25.635-25.636 0-2.52.362-4.954 1.037-7.253l-59.13-34.14a25.824 25.824 0 0 1-5.738 4.52c-12.34 7.051-27.986 2.864-35.038-9.402-7.051-12.267-2.864-27.913 9.402-35.038a25.71 25.71 0 0 1 6.758-2.703v-68.324a25.698 25.698 0 0 1-6.831-2.72C.558 99.897-3.629 84.178 3.423 71.911c7.052-12.267 22.77-16.454 35.037-9.402a25.82 25.82 0 0 1 5.79 4.575l59.163-34.159a25.707 25.707 0 0 1-1.048-7.29C102.365 11.46 113.823 0 128 0c14.177 0 25.635 11.459 25.635 25.635 0 2.548-.37 5.007-1.059 7.328Zm-6.162 10.522 59.287 34.23a25.599 25.599 0 0 0 2.437 19.831c3.609 6.278 9.488 10.44 16.013 12.062v68.41c-.333.081-.664.17-.993.264L145.725 44.17c.234-.224.464-.452.689-.684Zm-36.123.7-77.432 134.11a25.824 25.824 0 0 0-1.01-.27v-68.417c6.525-1.622 12.404-5.784 16.013-12.062a25.6 25.6 0 0 0 2.427-19.869l59.27-34.22c.239.247.483.49.732.727Zm24.872 6.075 77.414 134.08a25.492 25.492 0 0 0-4.513 5.757 25.7 25.7 0 0 0-2.702 6.758H50.64a25.71 25.71 0 0 0-2.704-6.758 25.825 25.825 0 0 0-4.506-5.724l77.429-134.107A25.715 25.715 0 0 0 128 51.27c2.487 0 4.89-.352 7.163-1.01Zm11.795 194.478 58.902-34.008a25.865 25.865 0 0 1-.473-1.682H50.607c-.082.333-.171.663-.266.992l59.19 34.175A25.558 25.558 0 0 1 128 236.373a25.564 25.564 0 0 1 18.958 8.365Z" style="fill:rgba(152,152,152,.28)" transform="matrix(.20313 0 0 .20313 100 341.572)" fill-rule="evenodd"/>
<g transform="translate(1388 123.874) scale(.21875)">
<bx:title>Cypress</bx:title>
<path d="M3.674 130.62A103.355 103.355 0 0 1 0 103.265C0 60.92 26.595 22.201 66.183 6.932l5.19 13.434c-34.076 13.146-56.963 46.458-56.963 82.9 0 7.994 1.062 15.91 3.154 23.539l-13.89 3.814Z" style="fill:rgba(152,152,152,.28)"/>
<path d="M182.645 62.358c-15.405-29.576-45.73-47.952-79.12-47.952-11.831 0-23.33 2.278-34.154 6.756L63.848 7.86C76.432 2.654 89.78 0 103.525 0c38.79 0 74.007 21.339 91.903 55.702l-12.783 6.656ZM114.634 180.66l-3.508 8.492c-.698 1.68-2.292 2.819-4.084 2.896a95.74 95.74 0 0 1-3.586.078c-41.293-.022-77.826-29.134-86.88-69.246l-14.055 3.173c5.08 22.5 17.83 42.92 35.903 57.515 18.283 14.76 41.314 22.909 64.877 22.953h.21c1.384 0 2.756-.033 4.128-.088 7.393-.31 14-4.942 16.823-11.808l4.581-11.101-14.41-2.864Z" style="fill:rgba(152,152,152,.28)"/>
<path d="m120.38 69.157 20.132 50.605 19.998-50.605h15.561l-49.615 120.647-14.399-2.864 20.088-48.714-28.233-69.069h16.468Zm-47.766-1.305c14.719 0 27.236 8.226 32.67 21.461l.299.719-14.033 4.765-.277-.608C87.776 86.416 80.97 81.96 72.613 81.96c-5.821 0-10.746 2.035-14.63 6.06-3.985 4.245-5.933 9.242-5.933 15.28 0 5.992 1.992 11.089 5.932 15.146 3.896 4.003 8.81 6.037 14.632 6.037 8.544 0 15.516-4.566 18.648-12.206l.266-.63 14.055 4.776-.299.719c-5.434 13.223-17.951 21.45-32.67 21.45-10.349 0-18.76-3.318-25.71-10.129-6.906-6.766-10.403-15.235-10.403-25.175 0-10.028 3.497-18.541 10.403-25.308 6.95-6.81 15.361-10.128 25.71-10.128Zm172.927 10.14c-6.474-6.723-14.553-10.14-24.027-10.14-9.407 0-17.155 3.35-23.042 9.951v-8.646h-15.163v94.211h15.163V128.64c5.887 6.6 13.624 9.951 23.042 9.951 9.474 0 17.564-3.417 24.038-10.15 6.375-6.766 9.596-15.224 9.596-25.153-.011-10.028-3.232-18.53-9.607-25.297Zm-11.886 40.432c-3.885 4.014-8.81 6.037-14.62 6.037-5.899 0-10.68-1.979-14.631-6.037-3.94-4.057-5.932-9.154-5.932-15.147 0-6.17 1.936-11.167 5.932-15.28 3.94-4.069 8.72-6.037 14.63-6.037 5.822 0 10.736 2.035 14.62 6.037 3.908 4.025 5.8 9.022 5.8 15.28 0 6.17-1.903 11.123-5.8 15.147Zm46.173-41.151v-8.116h-15.163v68.118h15.163V98.844c0-6.159 2.479-10.869 7.37-13.998 4.86-3.107 10.692-3.682 17.83-1.735l.919.254V68.793l-.564-.133c-9.585-2.289-19.203 1.006-25.555 8.613Zm65.452-9.42c-9.994 0-18.471 3.405-25.2 10.127-6.818 6.811-10.27 15.324-10.27 25.308 0 9.94 3.497 18.409 10.403 25.175 6.95 6.811 15.361 10.128 25.71 10.128 14.022 0 26.074-7.12 32.25-19.05l.354-.686-12.827-5.682-.31.608c-3.719 7.186-10.857 11.476-19.07 11.476-10.668 0-18.836-6.512-21.05-16.673h55.005l.067-.652c1.195-10.99-1.638-20.52-8.4-28.338-6.73-7.794-15.705-11.742-26.662-11.742Zm-19.556 28.57c2.69-9.3 10.282-15.247 19.556-15.247 9.53 0 17.122 5.948 19.579 15.246h-39.135Zm95.125.364c-8.267-1.548-15.405-2.897-15.405-8.646 0-4.566 4.858-7.75 11.808-7.75 7.67 0 11.876 3.294 12.86 10.072l.112.763 15.16-3.174-.107-.685c-2.04-12.04-12.775-19.525-28.013-19.525-7.648 0-14.123 1.979-19.236 5.882-5.223 3.88-7.869 8.944-7.869 15.07 0 8.866 5.623 15.522 15.063 17.8 2.446.575 5.036 1.04 7.537 1.504 9.396 1.714 18.272 3.339 18.272 9.663 0 4.876-5.666 8.27-13.767 8.27-8.246 0-12.794-3.295-13.912-10.083l-.122-.752-15.151 3.173.122.696c2.202 12.218 13.059 19.515 29.051 19.515 8.124 0 15.087-2.023 20.663-6.003 5.58-3.937 8.398-9.012 8.398-15.082 0-15.92-14.108-18.574-25.464-20.708Zm65.684 0c-8.265-1.548-15.403-2.897-15.403-8.646 0-4.566 4.858-7.75 11.806-7.75 7.672 0 11.875 3.294 12.86 10.072l.113.763 15.162-3.174-.112-.685c-2.035-12.04-12.77-19.525-28.01-19.525-7.65 0-14.125 1.979-19.236 5.882-5.223 3.88-7.87 8.944-7.87 15.07 0 8.866 5.624 15.522 15.064 17.8 2.448.575 5.034 1.04 7.538 1.504 9.396 1.714 18.272 3.339 18.272 9.663 0 4.876-5.666 8.27-13.768 8.27-8.248 0-12.795-3.295-13.914-10.083l-.12-.752-15.15 3.173.12.696c2.204 12.218 13.059 19.515 29.051 19.515 8.124 0 15.085-2.023 20.665-6.003 5.577-3.937 8.399-9.012 8.399-15.082 0-15.92-14.112-18.574-25.467-20.708Z" style="fill:rgba(152,152,152,.28)"/>
</g>
<path d="M251.172 116.594 139.4 4.828c-6.433-6.437-16.873-6.437-23.314 0l-23.21 23.21 29.443 29.443c6.842-2.312 14.688-.761 20.142 4.693 5.48 5.489 7.02 13.402 4.652 20.266l28.375 28.376c6.865-2.365 14.786-.835 20.269 4.657 7.663 7.66 7.663 20.075 0 27.74-7.665 7.666-20.08 7.666-27.749 0-5.764-5.77-7.188-14.235-4.27-21.336l-26.462-26.462-.003 69.637a19.82 19.82 0 0 1 5.188 3.71c7.663 7.66 7.663 20.076 0 27.747-7.665 7.662-20.086 7.662-27.74 0-7.663-7.671-7.663-20.086 0-27.746a19.654 19.654 0 0 1 6.421-4.281V94.196a19.378 19.378 0 0 1-6.421-4.281c-5.806-5.798-7.202-14.317-4.227-21.446L81.47 39.442l-76.64 76.635c-6.44 6.443-6.44 16.884 0 23.322l111.774 111.768c6.435 6.438 16.873 6.438 23.316 0l111.251-111.249c6.438-6.44 6.438-16.887 0-23.324" style="fill:rgba(152,152,152,.28)" transform="translate(438.387 38.81) scale(.34375)"/>
<g transform="matrix(.30273 0 0 .30273 458.825 700)">
<bx:title>astro</bx:title>
<path d="M84.026 4.223c1.376 1.708 2.078 4.014 3.482 8.626l30.668 100.744A127.624 127.624 0 0 0 81.51 101.18L61.543 33.702a2.599 2.599 0 0 0-4.987.008L36.83 101.146A127.617 127.617 0 0 0 0 113.578L30.818 12.825c1.409-4.603 2.113-6.905 3.49-8.61a11.329 11.329 0 0 1 4.59-3.398C40.933 0 43.34 0 48.155 0h22.012c4.82 0 7.23 0 9.266.82a11.33 11.33 0 0 1 4.594 3.403ZM87.695 118.388c-5.055 4.323-15.146 7.271-26.77 7.271-14.266 0-26.223-4.441-29.396-10.414-1.135 3.423-1.389 7.34-1.389 9.844 0 0-.747 12.29 7.8 20.837a8.037 8.037 0 0 1 8.037-8.036c7.607 0 7.599 6.637 7.592 12.022v.48c0 8.173 4.995 15.18 12.099 18.133a16.473 16.473 0 0 1-1.657-7.223c0-7.795 4.577-10.698 9.896-14.07 4.231-2.685 8.933-5.667 12.174-11.649a21.968 21.968 0 0 0 2.65-10.494c0-2.337-.363-4.588-1.036-6.701ZM188.585 112.018c12.828 0 22.45-4.564 26.396-12.334 0 3.7.245 7.524.863 10.484h21.09l-.06-.266c-.935-4.25-1.408-10.009-1.418-17.505V73.165c0-18.008-10.609-26.518-34.166-26.518-20.599 0-34.413 8.51-36.016 22.448h21.955c.74-6.044 5.796-9.374 14.061-9.374 8.14 0 12.703 3.33 12.703 10.238v1.85l-22.324 1.973c-10.746 1.1-16.898 2.923-21.208 5.832l-.13.088c-4.564 3.084-6.907 7.771-6.907 13.568 0 11.594 9.62 18.748 25.161 18.748Zm8.141-12.828c-7.155 0-11.47-2.836-11.47-7.4 0-4.687 3.575-7.154 12.58-8.264l16.527-1.727v3.7c0 8.264-7.153 13.691-17.637 13.691Zm84.694 12.828c21.463 0 32.44-8.017 32.44-20.968 0-10.73-6.168-16.651-21.091-18.625l-18.627-2.097c-5.302-.74-7.523-2.097-7.523-5.057 0-3.577 3.577-5.18 11.717-5.18 11.224 0 18.995 2.59 25.287 7.647l9.99-9.99c-6.908-7.154-18.871-11.101-33.672-11.101-20.845 0-32.44 7.4-32.44 19.858 0 10.854 7.154 16.898 21.954 18.87l16.776 1.974c6.66.864 8.634 2.097 8.634 5.304 0 3.7-3.701 5.674-12.335 5.674-12.827 0-21.46-3.454-27.258-9.867l-11.347 9.374c7.523 9.374 20.35 14.184 37.495 14.184Zm49.854-49.584V88.46c0 15.294 8.633 23.065 27.135 23.065 5.674 0 10.114-.617 14.308-1.85V93.64l-.355.078c-2.154.466-4.768.909-8.156.909-7.77 0-11.594-3.454-11.594-10.731V62.434h20.228V48.497h-20.228V25.925l-21.338 7.894v14.678h-13.815v13.937h13.815Zm72.2-13.937h-19.488v61.67h21.338V87.104c0-6.66 1.48-12.704 5.552-16.528 3.207-2.96 7.77-4.563 14.183-4.563 2.344 0 4.194.246 6.29.493V47.14c-1.355-.247-2.343-.247-4.069-.247-12.212 0-20.475 7.03-23.806 18.502V48.497Zm70.042 63.52c22.573 0 38.484-11.963 38.484-32.808 0-20.721-15.911-32.562-38.484-32.562-22.694 0-38.605 11.84-38.605 32.562 0 20.845 15.91 32.809 38.605 32.809Zm0-14.183c-10.36 0-16.897-6.66-16.897-18.625 0-11.964 6.537-18.378 16.897-18.378 10.238 0 16.776 6.414 16.776 18.378s-6.538 18.625-16.776 18.625Z" style="fill:rgba(152,152,152,.28)"/>
</g>
<path d="M52.867 0c-14.098 0-22.91 7.049-26.434 21.147 5.287-7.05 11.455-9.693 18.504-7.93 4.021 1.005 6.896 3.923 10.078 7.153 5.183 5.26 11.182 11.35 24.285 11.35 14.098 0 22.909-7.049 26.433-21.147-5.286 7.05-11.454 9.693-18.503 7.93-4.022-1.005-6.896-3.923-10.078-7.153C71.968 6.09 65.97 0 52.867 0ZM26.433 31.72C12.336 31.72 3.524 38.769 0 52.867c5.287-7.05 11.454-9.693 18.503-7.93 4.022 1.005 6.897 3.923 10.078 7.152 5.184 5.262 11.183 11.35 24.286 11.35 14.097 0 22.908-7.048 26.433-21.146-5.287 7.05-11.455 9.693-18.503 7.93-4.022-1.005-6.897-3.923-10.079-7.153-5.183-5.26-11.182-11.35-24.285-11.35ZM158.592 26.73h-9.226v17.858c0 4.762 3.125 4.688 9.226 4.39v7.217c-12.351 1.488-17.262-1.934-17.262-11.607V26.731h-6.845v-7.738h6.845V8.999l8.036-2.38v12.374h9.226v7.738Zm35.17-7.737h8.036v37.202h-8.036v-5.357c-2.827 3.944-7.217 6.325-13.02 6.325-10.12 0-18.528-8.557-18.528-19.569 0-11.086 8.408-19.568 18.527-19.568 5.804 0 10.194 2.38 13.021 6.25v-5.283Zm-11.756 30.506c6.696 0 11.756-4.985 11.756-11.905 0-6.92-5.06-11.905-11.756-11.905-6.696 0-11.756 4.985-11.756 11.905 0 6.92 5.06 11.905 11.756 11.905Zm33.185-36.087c-2.828 0-5.134-2.38-5.134-5.133a5.144 5.144 0 0 1 5.134-5.134 5.144 5.144 0 0 1 5.134 5.134c0 2.753-2.307 5.133-5.134 5.133Zm-4.018 42.783V18.993h8.035v37.202h-8.035Zm17.336 0V1.88h8.036v54.315h-8.036Zm60.194-37.202h8.482l-11.682 37.202h-7.887l-7.738-25.074-7.812 25.074h-7.887l-11.682-37.202h8.482l7.218 25.67 7.812-25.67h7.664l7.738 25.67 7.292-25.67Zm18.452-5.58c-2.827 0-5.134-2.381-5.134-5.134a5.144 5.144 0 0 1 5.134-5.134 5.144 5.144 0 0 1 5.134 5.134c0 2.753-2.307 5.133-5.134 5.133Zm-4.018 42.782V18.993h8.036v37.202h-8.036Zm36.905-38.17c8.333 0 14.286 5.655 14.286 15.328v22.842h-8.036V34.171c0-5.654-3.274-8.63-8.333-8.63-5.283 0-9.45 3.124-9.45 10.714v19.94h-8.036V18.993h8.036v4.762c2.456-3.87 6.473-5.73 11.533-5.73Zm52.381-13.913h8.036v52.083h-8.036v-5.357c-2.827 3.944-7.217 6.325-13.02 6.325-10.12 0-18.528-8.557-18.528-19.569 0-11.086 8.408-19.568 18.527-19.568 5.804 0 10.194 2.38 13.021 6.25V4.112Zm-11.756 45.387c6.696 0 11.756-4.985 11.756-11.905 0-6.92-5.06-11.905-11.756-11.905-6.696 0-11.756 4.985-11.756 11.905 0 6.92 5.06 11.905 11.756 11.905Zm46.726 7.664c-11.235 0-19.643-8.557-19.643-19.569 0-11.086 8.408-19.568 19.643-19.568 7.292 0 13.616 3.794 16.593 9.598l-6.92 4.018c-1.637-3.497-5.283-5.73-9.747-5.73-6.548 0-11.533 4.986-11.533 11.682 0 6.696 4.985 11.682 11.533 11.682 4.464 0 8.11-2.307 9.896-5.73l6.92 3.944c-3.126 5.878-9.45 9.673-16.742 9.673Zm29.985-27.902c0 6.77 20.015 2.678 20.015 16.443 0 7.44-6.473 11.459-14.509 11.459-7.44 0-12.797-3.349-15.178-8.706l6.92-4.018c1.19 3.349 4.166 5.357 8.258 5.357 3.572 0 6.325-1.19 6.325-4.166 0-6.622-20.015-2.902-20.015-16.22 0-6.995 6.027-11.384 13.616-11.384 6.101 0 11.16 2.827 13.765 7.738l-6.77 3.794c-1.34-2.901-3.944-4.24-6.995-4.24-2.902 0-5.432 1.264-5.432 3.943Zm34.301 0c0 6.77 20.015 2.678 20.015 16.443 0 7.44-6.473 11.459-14.509 11.459-7.44 0-12.798-3.349-15.179-8.706l6.92-4.018c1.19 3.349 4.167 5.357 8.259 5.357 3.571 0 6.324-1.19 6.324-4.166 0-6.622-20.014-2.902-20.014-16.22 0-6.995 6.026-11.384 13.616-11.384 6.1 0 11.16 2.827 13.765 7.738l-6.771 3.794c-1.34-2.901-3.944-4.24-6.994-4.24-2.902 0-5.432 1.264-5.432 3.943Z" style="paint-order:fill;fill:rgba(152,152,152,.28)" transform="matrix(.30291 0 0 .30291 1400 700)"/>
<path d="M239.553 138.96c0-14.508-11.762-26.27-26.27-26.27-.934 0-1.854.05-2.762.146l36.082-106.42H93.267l36.032 106.327a26.318 26.318 0 0 0-1.597-.052c-14.508 0-26.27 11.76-26.27 26.27 0 11.727 7.686 21.656 18.293 25.034-5.602 9.704-12.652 18.445-20.656 25.997-10.884 10.267-23.34 18.053-36.812 22.85-16.04-8.24-23.614-26.565-16.78-42.632.772-1.815 1.56-3.654 2.313-5.485 11.62-2.712 20.28-13.129 20.28-25.576 0-14.509-11.762-26.27-26.271-26.27s-26.27 11.761-26.27 26.27c0 8.897 4.426 16.756 11.193 21.508-6.502 14.804-16.06 30.298-19.038 48.255-3.569 21.52-.012 44.364 18.601 57.265 43.348 30.044 90.402-18.625 140.014-30.86 17.98-4.433 37.717-3.719 53.558-12.893 11.896-6.89 19.739-18.309 21.964-31.128 2.2-12.664-1.006-25.273-8.378-35.497a26.158 26.158 0 0 0 6.11-16.839" style="fill:rgba(183,183,183,.12)" transform="matrix(.22305 0 0 .22305 1743 261.68)"/>
<path d="M235.5 190.198c-1.932 11.13-8.806 20.851-18.858 26.674-9.371 5.427-20.6 7.047-32.49 8.761-6.369.918-12.955 1.869-19.389 3.455-17.012 4.195-33.49 12.38-49.424 20.295-31.89 15.84-59.43 29.518-85.398 11.52-19.022-13.183-18.144-37.575-15.928-50.941 2.054-12.384 7.607-23.789 12.976-34.818a796.621 796.621 0 0 0 2.722-5.634 32.453 32.453 0 0 0 8.443 2.118c-5.466 18.039 3.13 37.653 21.171 46.921l2.47 1.269 2.614-.931c14.263-5.08 27.406-13.23 39.063-24.229 7.535-7.109 14.014-14.974 19.339-23.378a32.8 32.8 0 0 0 4.891.367c16.559 0 30.271-12.379 32.393-28.367 6.778-.248 13.977-.25 20.794-.002 2.12 15.99 15.834 28.37 32.393 28.37 6.924 0 13.346-2.17 18.637-5.856 3.673 7.519 5.044 15.979 3.581 24.406ZM41.8 119.295c10.948 0 19.854 8.907 19.854 19.855 0 3.932-1.154 7.599-3.135 10.687-3.3 5.147-8.91 8.675-15.355 9.115-.451.03-.906.052-1.364.052-2.44 0-4.777-.445-6.938-1.253a19.967 19.967 0 0 1-10.305-8.777 19.725 19.725 0 0 1-2.612-9.824c0-10.948 8.907-19.855 19.855-19.855Zm66.049 19.666c0-9.947 7.353-18.206 16.907-19.634.962-.145 1.946-.22 2.947-.22 6.365 0 12.032 3.015 15.666 7.687a19.88 19.88 0 0 1 2.318 3.765 19.73 19.73 0 0 1 1.87 8.402c0 1.587-.192 3.13-.545 4.61-1.935 8.1-8.842 14.292-17.306 15.144-.658.066-1.326.1-2.003.1a19.734 19.734 0 0 1-10.76-3.181c-5.466-3.541-9.094-9.69-9.094-16.673Zm82.865-23.61a32.721 32.721 0 0 0-8.991 15.117 304.792 304.792 0 0 0-22.458 0c-1.68-6.232-5.162-11.73-9.847-15.906l20.545-41.542 20.751 42.332ZM102.216 12.834h135.437l-31.989 94.345a32.479 32.479 0 0 0-4.051 1.255l-31.6-64.463-31.69 64.078a32.502 32.502 0 0 0-4.226-1.139l-31.881-94.076Zm130.92 126.128c0 1.99-.297 3.912-.844 5.727a19.933 19.933 0 0 1-7.653 10.545 19.74 19.74 0 0 1-11.357 3.582c-9.167 0-16.9-6.247-19.174-14.707a19.803 19.803 0 0 1-.68-5.147c0-2.714.548-5.302 1.538-7.66a19.848 19.848 0 0 1 1.878-3.442c3.573-5.274 9.602-8.752 16.438-8.752.627 0 1.245.032 1.858.09 10.08.939 17.997 9.442 17.997 19.764Zm12.833 0c0-15.958-11.498-29.273-26.642-32.117L255.553 0H84.318L120.6 107.061c-14.618 3.253-25.583 16.316-25.583 31.9 0 11.702 6.184 21.98 15.452 27.756-4.458 6.642-9.744 12.892-15.802 18.608-9.608 9.063-20.311 15.937-31.85 20.46-11.623-7.301-16.536-21.07-11.434-33.064l.4-.94.75-1.764c12.766-4.453 21.953-16.603 21.953-30.867 0-18.024-14.663-32.687-32.686-32.687-18.024 0-32.687 14.663-32.687 32.687 0 9.097 3.74 17.335 9.758 23.267a552.73 552.73 0 0 1-3.418 7.11c-5.503 11.301-11.739 24.11-14.098 38.335-4.684 28.25 2.872 50.833 21.277 63.588 11.168 7.74 22.51 10.784 33.923 10.784 21.49 0 43.23-10.797 64.493-21.359 15.313-7.605 31.148-15.47 46.789-19.328 5.82-1.435 11.808-2.299 18.148-3.213 12.573-1.814 25.573-3.689 37.089-10.358 13.349-7.732 22.486-20.702 25.07-35.582 2.218-12.775-.451-25.57-6.961-36.422a32.488 32.488 0 0 0 4.787-17.011Z" style="fill:rgba(183,183,183,.12)" transform="matrix(.22305 0 0 .22305 1743 261.68)"/>
<g fill="none">
<path d="M253.11 313.094c-1.733 0-3.351-.462-4.854-1.271l-15.371-9.13c-2.312-1.272-1.156-1.734-.462-1.965 3.12-1.04 3.698-1.272 6.934-3.12.347-.232.81-.116 1.156.115l11.789 7.05c.462.231 1.04.231 1.386 0l46.115-26.698c.462-.231.694-.694.694-1.271v-53.28c0-.579-.232-1.04-.694-1.272l-46.115-26.582c-.462-.232-1.04-.232-1.386 0l-46.115 26.582c-.462.231-.694.809-.694 1.271v53.28c0 .463.232 1.04.694 1.272l12.598 7.281c6.819 3.467 11.095-.578 11.095-4.623v-52.587c0-.693.578-1.387 1.387-1.387h5.894c.694 0 1.387.578 1.387 1.387v52.587c0 9.13-4.97 14.447-13.638 14.447-2.658 0-4.738 0-10.633-2.89l-12.135-6.934c-3.005-1.733-4.854-4.97-4.854-8.437v-53.28c0-3.467 1.849-6.704 4.854-8.437l46.114-26.698c2.89-1.618 6.82-1.618 9.709 0l46.114 26.698c3.005 1.733 4.855 4.97 4.855 8.437v53.28c0 3.467-1.85 6.704-4.855 8.437l-46.114 26.698c-1.503.694-3.236 1.04-4.854 1.04Zm14.216-36.637c-20.225 0-24.386-9.246-24.386-17.105 0-.694.578-1.387 1.387-1.387h6.01c.693 0 1.271.462 1.271 1.156.925 6.125 3.583 9.13 15.834 9.13 9.708 0 13.87-2.196 13.87-7.397 0-3.005-1.157-5.2-16.297-6.703-12.598-1.272-20.457-4.045-20.457-14.1 0-9.362 7.86-14.91 21.035-14.91 14.793 0 22.075 5.086 23 16.18 0 .348-.116.694-.347 1.041-.232.231-.578.462-.925.462h-6.01c-.578 0-1.156-.462-1.271-1.04-1.387-6.356-4.97-8.437-14.447-8.437-10.633 0-11.905 3.699-11.905 6.472 0 3.352 1.503 4.392 15.834 6.241 14.216 1.85 20.92 4.508 20.92 14.447-.116 10.171-8.437 15.95-23.116 15.95ZM110.028 104.712c0-2.08-1.156-4.046-3.005-5.086l-49.004-28.2c-.81-.463-1.734-.694-2.658-.81h-.463c-.924 0-1.849.347-2.658.81l-49.004 28.2c-1.85 1.04-3.005 3.005-3.005 5.086l.116 75.817c0 1.04.578 2.08 1.502 2.543.925.578 2.08.578 2.89 0l29.125-16.643c1.849-1.04 3.005-3.005 3.005-5.085v-35.482c0-2.08 1.155-4.045 3.005-5.085l12.366-7.166c.925-.578 1.965-.81 3.005-.81 1.04 0 2.08.232 2.89.81l12.366 7.166c1.85 1.04 3.005 3.004 3.005 5.085v35.482c0 2.08 1.156 4.045 3.005 5.085l29.125 16.643c.925.578 2.08.578 3.005 0 .925-.463 1.503-1.503 1.503-2.543l-.116-75.817ZM345.571.347c-.924-.463-2.08-.463-2.89 0-.924.578-1.502 1.502-1.502 2.542v75.125c0 .693-.346 1.386-1.04 1.849-.693.346-1.387.346-2.08 0l-12.251-7.05a5.957 5.957 0 0 0-5.895 0l-49.004 28.316c-1.849 1.04-3.005 3.005-3.005 5.085v56.516c0 2.08 1.156 4.046 3.005 5.086l49.004 28.316a5.957 5.957 0 0 0 5.895 0l49.004-28.316c1.849-1.04 3.005-3.005 3.005-5.086V21.844c0-2.196-1.156-4.16-3.005-5.201L345.572.347Zm-4.507 143.776c0 .578-.231 1.04-.694 1.271l-16.758 9.708a1.714 1.714 0 0 1-1.503 0l-16.758-9.708c-.463-.231-.694-.809-.694-1.271v-19.417c0-.578.231-1.04.694-1.271l16.758-9.709a1.714 1.714 0 0 1 1.503 0l16.758 9.709c.463.23.694.809.694 1.271v19.417Z" style="fill:rgba(152,152,152,.28)" transform="matrix(.21513 0 0 .21513 1699.95 58.268)"/>
<path d="M107.6 53.743c1.85-1.04 2.89-3.005 2.89-5.086V34.904c0-2.08-1.155-4.045-2.89-5.085l-48.656-28.2a5.957 5.957 0 0 0-5.895 0L4.045 29.933c-1.85 1.04-3.005 3.005-3.005 5.085v56.517c0 2.08 1.156 4.045 3.005 5.085l48.657 27.738c1.85 1.04 4.046 1.04 5.78 0l29.471-16.411c.925-.463 1.503-1.503 1.503-2.543 0-1.04-.578-2.08-1.503-2.543L38.718 74.546c-.925-.578-1.503-1.502-1.503-2.542V54.32c0-1.04.578-2.08 1.503-2.543l15.371-8.784a2.821 2.821 0 0 1 3.005 0l15.372 8.784c.925.578 1.502 1.502 1.502 2.543V68.19c0 1.04.578 2.08 1.503 2.542.924.578 2.08.578 3.005 0l29.125-16.99Z" style="fill:rgba(152,152,152,.28)" transform="matrix(.21513 0 0 .21513 1786.23 73.435)"/>
<path d="M55.245 51.084a1.05 1.05 0 0 1 1.156 0l9.362 5.432c.346.232.577.578.577 1.04v10.865c0 .462-.23.809-.577 1.04L56.4 74.893a1.05 1.05 0 0 1-1.156 0l-9.361-5.432c-.347-.231-.578-.578-.578-1.04V57.557c0-.463.23-.81.578-1.04l9.361-5.433Z" style="fill:rgba(152,152,152,.28)" transform="matrix(.21513 0 0 .21513 1786.23 73.435)"/>
<g transform="matrix(.21513 0 0 .21513 1728.793 73.435)">
<mask id="a" fill="#fff">
<path d="M57.903 1.85a5.957 5.957 0 0 0-5.894 0L3.352 29.933c-1.85 1.04-2.89 3.005-2.89 5.085v56.286c0 2.08 1.156 4.045 2.89 5.085l48.657 28.085a5.957 5.957 0 0 0 5.894 0l48.658-28.085c1.849-1.04 2.89-3.005 2.89-5.085V35.019c0-2.08-1.157-4.045-2.89-5.085L57.903 1.85Z"/>
</mask>
<path d="M57.903 1.85a5.957 5.957 0 0 0-5.894 0L3.352 29.933c-1.85 1.04-2.89 3.005-2.89 5.085v56.286c0 2.08 1.156 4.045 2.89 5.085l48.657 28.085a5.957 5.957 0 0 0 5.894 0l48.658-28.085c1.849-1.04 2.89-3.005 2.89-5.085V35.019c0-2.08-1.157-4.045-2.89-5.085L57.903 1.85Z" style="fill:rgba(152,152,152,.28)"/>
<g mask="url(#a)">
<path d="M51.893 1.85 3.121 29.933C1.27 30.974 0 32.94 0 35.02v56.286c0 1.387.578 2.658 1.502 3.698L56.285 1.156c-1.387-.231-3.005-.116-4.392.693ZM56.632 125.053c.462-.116.925-.347 1.387-.578l48.773-28.085c1.85-1.04 3.005-3.005 3.005-5.085V35.019c0-1.502-.694-3.005-1.734-4.045l-51.43 94.079ZM106.676 29.934 57.788 1.85a8.025 8.025 0 0 0-1.503-.578L1.502 95.12a6.082 6.082 0 0 0 1.619 1.387l48.888 28.085c1.387.809 3.005 1.04 4.507.577l51.432-94.078c-.347-.462-.81-.81-1.272-1.156Z" style="fill:rgba(152,152,152,.28)"/>
</g>
<g mask="url(#a)">
<path d="M109.797 100.55V44.266c0-2.08-1.271-4.045-3.12-5.085l-48.89-28.085a5.106 5.106 0 0 0-1.848-.693l53.511 91.42c.231-.347.347-.809.347-1.271ZM3.12 39.18C1.272 40.22 0 42.185 0 44.265v56.286c0 2.08 1.387 4.045 3.12 5.085l48.889 28.085c1.156.693 2.427.925 3.814.693L3.467 39.064l-.346.116Z" style="fill:rgba(152,152,152,.28)" transform="translate(0 -9.246)"/>
<path fill-rule="evenodd" d="m50.391.809-.693.347h.924l-.231-.347ZM106.792 105.636c1.387-.809 2.427-2.196 2.89-3.698L56.053 10.402c-1.387-.231-2.89-.116-4.16.693L3.351 39.065l52.355 95.465a8.057 8.057 0 0 0 2.196-.693l48.889-28.2ZM111.3 104.712l-.347-.578v.809l.346-.231Z" style="fill:rgba(152,152,152,.28)" transform="translate(0 -9.246)"/>
<path d="m106.792 105.636-48.773 28.085a6.973 6.973 0 0 1-2.196.693l.925 1.734 54.089-31.32v-.694l-1.387-2.312c-.231 1.618-1.271 3.005-2.658 3.814Z" fill-rule="evenodd" style="fill:rgba(152,152,152,.28)" transform="translate(0 -9.246)"/>
<path d="m106.792 105.636-48.773 28.085a6.973 6.973 0 0 1-2.196.693l.925 1.734 54.089-31.32v-.694l-1.387-2.312c-.231 1.618-1.271 3.005-2.658 3.814Z" fill-rule="evenodd" style="fill:rgba(152,152,152,.28)" transform="translate(0 -9.246)"/>
</g>
</g>
</g>
</svg>