<svg fill="none" style="width:100%;height:100%" viewBox="0 0 214 158">
<g clip-path="url(#a)">
<path d="m82.68 154.9-16.768-37.934c-3.913-8.852-8.268-18.228-16.486-23.341-4.433-2.758-10.607-3.859-14.654-.56-2.845 2.319-3.887 6.161-4.509 9.778-3.103 18.042.483 37.157 10.973 53.166 13.997.627 28.895-.518 41.444-1.109Z" fill="#d5ffe4" stroke="#010101" stroke-width="1.5" stroke-linecap="round" stroke-linejoin="round"/>
<path d="M40.912 97.334a505.6 505.6 0 0 0 16.614 56.72" stroke="#010101" stroke-width="1.5" stroke-linecap="round" stroke-linejoin="round"/>
<path d="M49.139 156.291c-5.239-10.263-10.491-20.55-16.814-30.183-4.551-6.934-10.047-13.821-17.786-16.804-2.736-1.054-5.908-1.547-8.541-.257-2.978 1.459-4.537 4.852-5.026 8.132-1.063 7.13 1.835 14.226 5.135 20.635 3.12 6.058 6.659 11.901 11.918 17.954 12.627.162 21.563.401 31.112.523h.002Z" fill="#8be8e5" stroke="#010101" stroke-width="1.5" stroke-linecap="round" stroke-linejoin="round"/>
<path d="M9.345 111.16A350.757 350.757 0 0 0 32.4 154.818L9.345 111.16Z" fill="#d5ffe4"/>
<path d="M9.345 111.16A350.757 350.757 0 0 0 32.4 154.818" stroke="#010101" stroke-width="1.5" stroke-linecap="round" stroke-linejoin="round"/>
<path d="M172.992 155.339c-4.241-33.261-10.049-93.227-16.204-141.494-59.66-.125-46.051-1.242-107.39-.829 5.376 42.16 11.589 101.799 16.686 141.766 50.169 1.028 17.892.557 106.908.557Z" fill="#010101" stroke="#010101" stroke-width="1.5" stroke-miterlimit="10"/>
<path d="M60.426 25.388c9.979-.743 20-.934 30-.573M99.892 24.805l12.143-.245M119.806 24.94a385.096 385.096 0 0 1 22.464-.479M60.914 34.31c5.907.203 11.824.137 17.725-.199M86.294 34.189a393.932 393.932 0 0 1 36.79-.452M62.253 42.383c10.12.507 20.277.262 30.36-.734M100.865 41.233c2.872-.129 5.747-.183 8.622-.16M118.714 41.103l11.536-.243M65.408 52.024h8.257M80.588 52.216l40.918-1.315M128.914 50.798l10.807.035M66.015 71.689l15.664.489M86.902 72.609l19.06-.606M114.099 72.013a388.539 388.539 0 0 0 34.501-1.731M67.836 82.712c11.664.072 23.33-.192 34.978-.789M112.279 81.761c5.783.301 11.577.37 17.365.207M68.2 93.069l16.028-.364M95.121 92.712c10.998.529 22.032.298 32.998-.691M135.381 91.761l7.88-.244M69.144 102.379c8.378.279 16.773.076 25.128-.607M103.124 102.493l22.158-.279M71.727 118.447c7.714.219 15.435.193 23.147-.078M102.384 117.955c7.344.231 14.696.181 22.036-.149M134.272 117.468l8.865.111M73.327 128.456a868.7 868.7 0 0 0 39.276-.016M123.437 129.27l27.95.156M75.299 138.263c6.509.532 13.046.716 19.575.55M102.263 138.833c18.621.747 37.266.889 55.897.425" stroke="#fff" stroke-width="1.5" stroke-linecap="round" stroke-linejoin="round"/>
<path d="M49.54 14.14c-.74-3.855-1.268-7.152-1.689-12.372 35.932-.296 71.245-1.823 107.317-.46.499 3.398 1.508 8.835 1.579 12.517-35.113-.134-71.129-.219-107.207.315Z" fill="#fff" stroke="#010101" stroke-width="1.5" stroke-linecap="round" stroke-linejoin="round"/>
<path d="m117.142 56.68 88.119-1.792s5.396 48.199 7.078 61.322c-3.796-3.957-7.845-7.672-11.702-11.193-15.434 0-32.44.615-48.811.891-23.209.391-29.375.518-29.375.518l-5.309-49.746Z" fill="#a084e8" stroke="#010101" stroke-width="1.5" stroke-linecap="round" stroke-linejoin="round"/>
<path d="M146.156 68.054c-4.591 5.179-13.431 14.904-13.431 14.904s9.618 9.388 15.362 11.796M171.268 64.292c-3.789 13.143-7.136 22.63-10.748 35.157M178.75 68.054l14.686 11.301c.245.188.508.406.557.711.056.35-.19.67-.422.939-3.345 3.893-9.535 10.922-13.094 14.482" stroke="#fff" stroke-width="1.5" stroke-linecap="round" stroke-linejoin="round"/>
<path d="m150.076 4.183-5.719 6.384 5.719-6.384Z" fill="#a084e8"/>
<path d="m150.076 4.183-5.719 6.384" stroke="#010101" stroke-width="1.5" stroke-linecap="round" stroke-linejoin="round"/>
<path d="m144.586 4.396 5.261 5.959-5.261-5.959Z" fill="#a084e8"/>
<path d="m144.586 4.396 5.261 5.959" stroke="#010101" stroke-width="1.5" stroke-linecap="round" stroke-linejoin="round"/>
</g>
<defs>
<clipPath id="a">
<path fill="#fff" d="M0 0h213.089v157.041H0z"/>
</clipPath>
</defs>
</svg>