<svg viewBox="0 0 256 256" width="256" height="256">
<g style="stroke:none;stroke-width:0;stroke-dasharray:none;stroke-linecap:butt;stroke-linejoin:miter;stroke-miterlimit:10;fill:none;fill-rule:nonzero;opacity:1">
<path d="M80.224 73.891c-.049.007-.095.029-.145.029-.029 0-.055-.014-.084-.017-.038-.001-.073.012-.111.006-.064-.009-.117-.042-.176-.063l-.019-.007a.981.981 0 0 1-.498-.393l-8.733-8.734a.999.999 0 1 1 1.414-1.414l7.41 7.411c1.64-15.449-4.181-28.442-16.193-35.847a1 1 0 1 1 1.049-1.702c11.302 6.965 17.44 18.56 17.44 32.476 0 1.505-.08 3.04-.225 4.596l6.934-6.934a.999.999 0 1 1 1.414 1.414l-8.914 8.914a.98.98 0 0 1-.475.247c-.029.009-.058.012-.088.018zM32.153 16.912c10.517 2.136 19.862 8.403 23.81 15.969.929 1.793 1.383 3.915 1.383 6.185 0 3.564-1.12 7.493-3.284 11.086-2.334 3.879-5.582 6.906-9.145 8.525-3.689 1.676-7.284 1.658-10.124-.052-5.733-3.451-6.419-12.871-1.529-20.994.003-.006.01-.009.013-.014 2.095-3.475 4.99-6.324 8.152-8.022a1 1 0 1 1 .946 1.762c-2.855 1.534-5.481 4.129-7.395 7.308l-.01.01c-4.314 7.178-3.933 15.354.853 18.238 2.258 1.359 5.193 1.339 8.265-.057 3.197-1.453 6.131-4.2 8.259-7.735 3.191-5.299 3.913-11.312 1.84-15.317-3.679-7.05-12.484-12.911-22.434-14.931-11.039-2.243-21.737.327-30.124 7.237a1 1 0 0 1-1.272-1.544c8.861-7.3 20.153-10.019 31.796-7.654z" style="stroke:none;stroke-width:1;stroke-dasharray:none;stroke-linecap:butt;stroke-linejoin:miter;stroke-miterlimit:10;fill:#A084E8;fill-rule:nonzero;opacity:1" transform="matrix(2.81 0 0 2.81 1.407 1.407)"/>
</g>
</svg>