<svg fill="none" style="width:100%;height:100%" viewBox="0 0 273 197">
<g clip-path="url(#a)" stroke-width="1.5" stroke-linecap="round" stroke-linejoin="round">
<path d="M189.281 148.457c6.36-10.859 5.804-11.343 12.165-22.202 4.453-7.602 9.398-15.649 18.428-19.89 4.872-2.288 11.591-3.09 15.899-.118 10.052 6.933 3.204 25.279-6.435 44.309-15.188.194-26.467-1.268-40.057-2.097v-.002Z" fill="#8be8e5" stroke="#010101"/>
<path d="M229.014 109.804c-5.256 16.599-9.65 23.865-17.288 39.844" stroke="#010101"/>
<path d="M225.606 150.51c10.947-16.256 16.453-27.377 31.711-31.705 2.991-.848 6.441-1.197 9.264-.009 3.193 1.344 5.699 4.334 5.254 7.201-1.706 10.994-8.397 16.956-12.49 24.84-13.692-.177-23.384-.193-33.739-.327Z" fill="#d5ffe4" stroke="#010101"/>
<path d="M262.903 120.55c-7.565 12.943-9.354 17.15-19.116 29.099" stroke="#010101"/>
<path d="M49.5 59.7c-1.437-4.846-2.851-10.185-.812-14.809.95-2.153 2.577-3.937 4.326-5.513 8.262-7.445 83.413-32.882 96.313-36.288 6.779-1.79 13.256.717 17.363 9.045 8.093 16.411 33.859 100.165 42.75 137.55.64 2.691 1.263 5.579.274 8.162-.938 2.451-3.164 4.163-5.428 5.49-3.613 2.118-7.562 3.588-11.515 4.971-15.993 5.597-66.543 24.05-83.212 27.091-3.071.56-6.32 1.063-9.249-.017-4.624-1.705-6.995-6.712-8.875-11.268C79.979 156.336 49.096 59.101 49.499 59.699l.001.001Z" fill="#a084e8" stroke="#010101"/>
<path d="M59.403 63.426c-1.204-4.184-2.858-9.69-1.13-13.689.807-1.863 2.184-3.407 3.663-4.771 6.988-6.448 73.994-30.067 84.889-33.034 3.451-.94 8.121-2.358 13.313 6.236 7.415 12.275 32.214 95.62 39.542 127.445.535 2.324 1.056 4.818.216 7.052-.796 2.12-2.679 3.603-4.592 4.754-3.053 1.836-6.39 3.115-9.728 4.317-13.51 4.867-59.738 22.404-73.814 25.063-2.594.49-5.336.931-7.807.003-3.9-1.465-5.892-5.786-7.47-9.72C86.867 153.101 59.064 62.91 59.403 63.426Z" fill="#fff" stroke="#010101"/>
<path d="m37.78.75 8.343 19.793M.75 34.511a142.427 142.427 0 0 1 25.41 10.29M6.844 79.866l25.037-8.201-1.702 1.108" stroke="#a084e8"/>
<path d="M78.986 17.711c-1.873.89-2.856 2.971-2.314 4.972 1.322 4.877 3.226 11.039 4.528 14.933.243.728.516 1.492 1.104 1.985 1.014.851 2.524.585 3.809.263a320.664 320.664 0 0 0 42.479-13.839c.681-.276 1.409-.595 1.774-1.232.342-.598.282-1.336.196-2.019a43.984 43.984 0 0 0-4.944-15.392c-.667-1.233-1.457-2.495-2.703-3.138-1.631-.841-3.6-.415-5.372.062-12.764 3.44-25.72 7.304-38.558 13.404v.001Z" fill="#a084e8" stroke="#010101"/>
<path d="m107.565 62.217 44.511-18.644c.221-.093.483-.254.448-.491-.035-.237-.521-.054-.323.081M118.909 98.486a659.511 659.511 0 0 0 46.59-17.322" stroke="#010101"/>
<path d="M161.659 91.634a104.965 104.965 0 0 1 5.655 3.46l10.196-6.917c-6.273-2.993-9.655-6.012-15.606-9.818.062 3.467-.086 8.854-.245 13.275Z" fill="#fff" stroke="#010101"/>
<path d="M205.878 39.923c1.872-3.38 3.702-6.745 5.41-10.071-2.622-2.131-10.743-7.924-14.081-9.308a446.563 446.563 0 0 0-6.665 9.75c2.381 1.493 5.402 3.395 8.426 5.298l6.91 4.33Z" fill="#010101" stroke="#010101"/>
<path d="M190.535 30.305c-10.324 15.48-20.032 31.97-28.631 48.056 4.549 2.66 15.606 9.818 15.606 9.818 8.904-15.453 19.394-32.062 28.362-48.245-2.082-1.308-4.49-2.823-6.904-4.342l-8.433-5.287Z" fill="#d5ffe4" stroke="#010101"/>
<path d="M177.51 88.178s-11.057-7.157-15.606-9.818c5.951 3.806 9.333 6.825 15.606 9.818ZM198.968 35.591a6829.07 6829.07 0 0 0 6.904 4.342l.006-.011-6.91-4.331ZM190.542 30.294l-.007.01 8.433 5.287c-3.024-1.903-6.045-3.805-8.426-5.297Z" fill="#d5ffe4" stroke="#010101"/>
<path d="m161.349 99.142 5.965-4.047a103.318 103.318 0 0 0-5.655-3.46c-.15 4.186-.31 7.507-.31 7.507Z" fill="#010101" stroke="#010101"/>
<path d="M135.826 135.486a582.586 582.586 0 0 1 43.528-15.818" stroke="#010101"/>
<path d="M114.756 134.154a.553.553 0 0 0-.745-.302c-2.277 1.041-14.577 5.888-14.842 6.546-.215.535 2.772 9.121 5.783 14.943.127.246.399.38.668.316 5.208-1.238 14.016-5.142 15.198-5.671a.152.152 0 0 0 .078-.199l-6.14-15.634v.001Z" fill="#E3E3FF" stroke="#010101"/>
<path d="m105.256 143.853 8.184 4.413s4.306-11.532 7.511-17.888" stroke="#010101"/>
<path d="M99.158 98.002a.553.553 0 0 0-.745-.302c-2.277 1.041-14.577 5.888-14.842 6.546-.215.535 2.772 9.121 5.783 14.943.127.246.399.38.668.316 5.208-1.238 14.016-5.142 15.198-5.671a.152.152 0 0 0 .078-.199l-6.14-15.633Z" fill="#E3E3FF" stroke="#010101"/>
<path d="m89.658 107.702 8.184 4.413s4.306-11.532 7.511-17.888" stroke="#010101"/>
<path d="M86.223 61.851a.553.553 0 0 0-.745-.302C83.2 62.59 70.9 67.437 70.636 68.095c-.215.535 2.772 9.121 5.783 14.943.127.246.399.38.668.316 5.208-1.238 14.016-5.142 15.198-5.671a.152.152 0 0 0 .078-.199l-6.14-15.634v.001Z" fill="#E3E3FF" stroke="#010101"/>
<path d="m76.723 71.55 8.184 4.413s4.306-11.532 7.51-17.888" stroke="#010101"/>
</g>
<defs>
<clipPath id="a">
<path fill="#fff" d="M0 0h272.636v196.769H0z"/>
</clipPath>
</defs>
</svg>